<svg width="17" height="21" viewBox="0 0 17 21" fill="none" xmlns="http://www.w3.org/2000/svg">
<path d="M8.2171 9.64913C9.54065 9.64913 10.6867 9.17369 11.6232 8.23564C12.5596 7.29775 13.0343 6.15018 13.0343 4.82441C13.0343 3.49911 12.5596 2.35138 11.623 1.41318C10.6864 0.475442 9.5405 0 8.2171 0C6.8934 0 5.74762 0.475442 4.81119 1.41334C3.87476 2.35123 3.3999 3.49895 3.3999 4.82441C3.3999 6.15018 3.87476 7.2979 4.81134 8.2358C5.74792 9.17354 6.89386 9.64913 8.2171 9.64913Z" fill="#FBC11A"/>
<path d="M16.6457 15.4031C16.6187 15.0127 16.564 14.587 16.4836 14.1374C16.4024 13.6844 16.2979 13.2562 16.1728 12.8648C16.0435 12.4602 15.8678 12.0608 15.6505 11.6779C15.425 11.2806 15.1601 10.9346 14.8628 10.6499C14.552 10.352 14.1714 10.1125 13.7314 9.93785C13.2928 9.76408 12.8069 9.67606 12.287 9.67606C12.0828 9.67606 11.8854 9.75996 11.5041 10.0086C11.2694 10.1619 10.9949 10.3392 10.6885 10.5352C10.4265 10.7024 10.0716 10.8591 9.63318 11.0009C9.20547 11.1395 8.77121 11.2098 8.34259 11.2098C7.91397 11.2098 7.47986 11.1395 7.0517 11.0009C6.61377 10.8592 6.25885 10.7026 5.99716 10.5354C5.69366 10.3412 5.41901 10.1639 5.18082 10.0085C4.79996 9.7598 4.60236 9.6759 4.39819 9.6759C3.87817 9.6759 3.39233 9.76408 2.95395 9.938C2.51419 10.1124 2.13348 10.3519 1.82236 10.65C1.52527 10.9349 1.26022 11.2807 1.035 11.6779C0.817871 12.0608 0.64209 12.4601 0.512695 12.8649C0.387726 13.2563 0.283203 13.6844 0.202026 14.1374C0.121613 14.5864 0.0669861 15.0123 0.039978 15.4035C0.0134277 15.7868 0 16.1846 0 16.5864C0 17.632 0.331879 18.4785 0.986328 19.1028C1.63269 19.7189 2.48795 20.0314 3.52798 20.0314H13.1581C14.1982 20.0314 15.0531 19.719 15.6996 19.1028C16.3542 18.479 16.6861 17.6323 16.6861 16.5862C16.6859 16.1826 16.6724 15.7845 16.6457 15.4031Z" fill="#FBC11A"/>
</svg>
