<svg width="20" height="14" viewBox="0 0 20 14" fill="none" xmlns="http://www.w3.org/2000/svg">
<path d="M0.417454 1.1359C3.16237 3.30557 7.97886 7.12268 9.39448 8.31286C9.58452 8.4735 9.78835 8.55516 9.99995 8.55516C10.2111 8.55516 10.4146 8.47426 10.6042 8.31439C12.021 7.12304 16.8375 3.30557 19.5825 1.1359C19.7534 1.00107 19.7794 0.764093 19.6411 0.599265C19.3212 0.218385 18.8444 0 18.3333 0H1.66663C1.15558 0 0.678665 0.218385 0.35886 0.599302C0.220501 0.764094 0.246556 1.00107 0.417454 1.1359Z" fill="black"/>
<path d="M19.7583 2.31171C19.6106 2.24754 19.4369 2.26993 19.314 2.36793C16.2699 4.77643 12.3848 7.86365 11.1625 8.89167C10.4764 9.46968 9.5243 9.46968 8.83664 8.8909C7.53375 7.79526 3.17094 4.33361 0.686016 2.36789C0.562305 2.26989 0.388164 2.24827 0.24168 2.31167C0.0944141 2.37551 0 2.51299 0 2.66451V12.4445C0 13.3024 0.747461 14 1.66668 14H18.3334C19.2525 14 20 13.3024 20 12.4445V2.66451C20 2.51299 19.9056 2.37514 19.7583 2.31171Z" fill="black"/>
</svg>
