<svg width="15" height="15" viewBox="0 0 15 15" fill="none" xmlns="http://www.w3.org/2000/svg">
<path d="M7.49598 0.0043371C3.35629 0.00521549 0.00111846 3.36182 0.00199684 7.50151C0.00228964 8.93495 0.413638 10.3382 1.1872 11.545L0.0210285 14.5707C-0.0410734 14.7317 0.0390355 14.9125 0.199956 14.9746C0.23594 14.9884 0.27415 14.9956 0.312711 14.9955C0.348491 14.9957 0.384007 14.9896 0.417649 14.9774L3.54081 13.8624C7.05471 16.0509 11.6774 14.9764 13.8659 11.4625C16.0544 7.94858 14.9799 3.3259 11.466 1.13743C10.2748 0.395541 8.89932 0.00296096 7.49598 0.0043371Z" fill="#4CAF50"/>
<path d="M11.0694 8.78059C11.0694 8.78059 10.3042 8.40581 9.82515 8.15597C9.28298 7.87676 8.64586 8.39957 8.34603 8.69691C7.8794 8.51766 7.45321 8.24711 7.0924 7.90112C6.74634 7.54036 6.4758 7.11417 6.29661 6.64749C6.59394 6.34705 7.1155 5.71054 6.83755 5.16837C6.59081 4.68865 6.21293 3.92411 6.21293 3.92349C6.1599 3.81826 6.05218 3.75183 5.93433 3.75171H5.30971C4.40006 3.90882 3.73866 4.70253 3.74815 5.6256C3.74815 6.60626 4.92182 8.49016 5.71324 9.28218C6.50467 10.0742 8.38855 11.2473 9.36982 11.2473C10.2929 11.2568 11.0866 10.5953 11.2437 9.68571V9.06109C11.2438 8.94198 11.1762 8.8332 11.0694 8.78059Z" fill="#FAFAFA"/>
</svg>
