<svg width="23" height="23" viewBox="0 0 23 23" fill="none" xmlns="http://www.w3.org/2000/svg">
<path d="M20.0315 5.05277L20.8811 5.90376L21.2468 5.53746C21.8794 4.90394 21.8794 3.87313 21.2468 3.23956L19.0481 1.03741C18.7417 0.730542 18.3343 0.561523 17.901 0.561523C17.4677 0.561523 17.0603 0.730518 16.7539 1.03741L16.3882 1.40373L17.2378 2.25472L17.6036 1.8884C17.6831 1.80882 17.7887 1.76499 17.9011 1.76499C18.0135 1.76499 18.1191 1.80882 18.1985 1.8884L20.3972 4.09053C20.5612 4.2548 20.5612 4.52215 20.3972 4.68642L20.0315 5.05277Z" fill="#FBC11A"/>
<path d="M1.35426 17.7697C0.474342 18.651 -0.541861 21.0977 0.338079 21.979C1.01307 22.655 2.60764 22.2136 3.711 21.5734C3.79086 21.5271 3.86058 21.4146 3.86541 21.3223C3.90302 20.6029 3.99665 19.5213 3.99665 19.5213C3.99696 19.4852 4.01818 19.464 4.05423 19.4636L5.99128 19.4211C6.04088 19.42 6.08085 19.38 6.08188 19.3303L6.12242 17.3922C6.12273 17.3561 6.14395 17.3348 6.18003 17.3345C6.18003 17.3345 7.44573 17.3233 7.96295 17.3186C8.08239 17.3175 8.24774 17.2481 8.33218 17.1635C8.73768 16.7575 9.88234 15.6111 10.9511 14.5407L7.76464 11.3492L1.35426 17.7697Z" fill="#FBC11A"/>
<path d="M20.4562 6.32931L19.6066 5.47832L16.8129 2.6803L15.9633 1.82931L14.4551 0.318781C14.2429 0.106268 13.9648 0 13.6867 0C13.4086 0 13.1304 0.106268 12.9182 0.318781L7.31699 5.92879C6.18079 7.06677 6.18079 8.91182 7.31699 10.0498L8.18953 10.9237L11.376 14.1151L12.2486 14.9891C12.8167 15.5581 13.5613 15.8426 14.3059 15.8426C15.0504 15.8426 15.795 15.5581 16.3631 14.9891L21.9644 9.37911C22.3888 8.95406 22.3888 8.26492 21.9644 7.83989L20.4562 6.32931ZM13.8207 11.8963C13.6684 12.0488 13.4799 12.1517 13.2748 12.1977C13.1946 12.2157 13.1119 12.2253 13.0277 12.2253C12.7281 12.2253 12.4465 12.1084 12.2347 11.8962L10.4049 10.0637C10.1931 9.85155 10.0765 9.56945 10.0765 9.2694C10.0765 9.18371 10.0863 9.09959 10.1048 9.01809C10.1512 8.81407 10.2536 8.62676 10.4049 8.47519C10.6167 8.26304 10.8984 8.1462 11.1979 8.1462C11.4975 8.1462 11.7792 8.26304 11.9909 8.47519L12.0653 8.54961L13.7384 10.2254L13.8207 10.3078C14.0325 10.5199 14.1492 10.802 14.1492 11.1021C14.1492 11.4021 14.0325 11.6841 13.8207 11.8963ZM19.3352 8.56608L18.2461 9.6569C17.5421 10.362 16.4006 10.362 15.6966 9.6569L12.6409 6.59634C11.9368 5.89122 11.9368 4.74797 12.6409 4.04285L13.73 2.95202C13.9929 2.68865 14.4193 2.68865 14.6822 2.95202L14.9355 3.20572L19.082 7.35864L19.3353 7.61233C19.5982 7.87568 19.5982 8.30271 19.3352 8.56608Z" fill="#FBC11A"/>
<path d="M11.4811 8.9858C11.4055 8.91005 11.3049 8.86829 11.1979 8.86829C11.0909 8.86829 10.9903 8.91 10.9147 8.9858C10.8391 9.06154 10.7974 9.1623 10.7974 9.26941C10.7974 9.37657 10.839 9.47735 10.9147 9.55308L12.7444 11.3857C12.82 11.4614 12.9206 11.5032 13.0276 11.5032C13.1346 11.5032 13.2352 11.4615 13.3108 11.3857C13.3864 11.3099 13.4281 11.2092 13.4281 11.102C13.4281 10.9949 13.3865 10.8941 13.3108 10.8184L11.4811 8.9858Z" fill="#FBC11A"/>
</svg>
