<svg width="30" height="18" viewBox="0 0 30 18" fill="none" xmlns="http://www.w3.org/2000/svg">
<path fill-rule="evenodd" clip-rule="evenodd" d="M25.8193 11.3061C26.8144 12.2777 27.8647 13.1918 28.7573 14.2614C29.1515 14.7367 29.5248 15.2272 29.8104 15.7787C30.215 16.5628 29.8485 17.4257 29.1454 17.4725L24.775 17.4706C23.6477 17.5641 22.7485 17.1103 21.9924 16.3396C21.3873 15.7232 20.8269 15.0673 20.2451 14.4301C20.0066 14.1697 19.7569 13.9247 19.4586 13.731C18.862 13.3437 18.3441 13.4623 18.0032 14.0846C17.6559 14.7175 17.5772 15.4183 17.5431 16.1236C17.4962 17.1528 17.1852 17.4233 16.1514 17.4705C13.9421 17.5746 11.8454 17.2404 9.89757 16.1259C8.18032 15.1434 6.84868 13.7563 5.68962 12.1861C3.43292 9.1284 1.70474 5.76852 0.15151 2.31452C-0.198109 1.53633 0.0575753 1.1186 0.916197 1.10382C2.34198 1.07612 3.76756 1.07809 5.19501 1.10185C5.77449 1.11032 6.15811 1.44269 6.38186 1.99014C7.15325 3.88687 8.09713 5.69144 9.28191 7.36413C9.59743 7.80946 9.91915 8.25479 10.3773 8.56824C10.8841 8.91529 11.27 8.80026 11.5085 8.23567C11.6598 7.87767 11.726 7.49208 11.7601 7.10865C11.8731 5.78952 11.8879 4.47266 11.6898 3.15816C11.5682 2.33778 11.1061 1.8067 10.2875 1.65146C9.86977 1.57231 9.93197 1.41687 10.1342 1.17843C10.4855 0.767211 10.8159 0.51123 11.4745 0.51123H16.4139C17.1915 0.6647 17.3642 1.01402 17.4706 1.79645L17.4748 7.28301C17.4664 7.58591 17.6261 8.48475 18.1717 8.68523C18.6084 8.82796 18.8962 8.47864 19.1582 8.20176C20.3408 6.9466 21.1848 5.46326 21.9389 3.92728C22.2735 3.2519 22.5612 2.55049 22.8401 1.84968C23.0467 1.32964 23.3709 1.07375 23.9566 1.08509L28.7105 1.08933C28.8514 1.08933 28.994 1.0914 29.1305 1.11476C29.9316 1.25128 30.1511 1.59587 29.9037 2.3781C29.5139 3.60536 28.7554 4.6281 28.0138 5.65557C27.221 6.75252 26.3731 7.81193 25.587 8.91539C24.8646 9.92305 24.922 10.431 25.8193 11.3061Z" fill="#368EC0"/>
</svg>
