<svg width="76" height="65" viewBox="0 0 76 65" fill="none" xmlns="http://www.w3.org/2000/svg">
<path d="M50.5513 22.3866L57.7524 24.9462C57.9159 25.0044 58.0831 25.0319 58.2475 25.0319C58.848 25.0319 59.4115 24.6633 59.6262 24.0718L61.3667 19.2744C61.498 18.9124 61.4786 18.5137 61.3129 18.166C61.1473 17.8182 60.8488 17.5498 60.4832 17.4198L53.2821 14.8602C52.5204 14.5891 51.6818 14.9812 51.4085 15.7346L49.668 20.532C49.5367 20.894 49.556 21.2927 49.7217 21.6404C49.8872 21.9882 50.1857 22.2566 50.5513 22.3866ZM53.6705 18.0792L58.1143 19.6587L57.3639 21.727L52.92 20.1475L53.6705 18.0792Z" fill="#368EC0"/>
<path d="M50.5513 22.3866L57.7524 24.9462C57.9159 25.0044 58.0831 25.0319 58.2475 25.0319C58.848 25.0319 59.4115 24.6633 59.6262 24.0718L61.3667 19.2744C61.498 18.9124 61.4786 18.5137 61.3129 18.166C61.1473 17.8182 60.8488 17.5498 60.4832 17.4198L53.2821 14.8602C52.5204 14.5891 51.6818 14.9812 51.4085 15.7346L49.668 20.532C49.5367 20.894 49.556 21.2927 49.7217 21.6404C49.8872 21.9882 50.1857 22.2566 50.5513 22.3866ZM53.6705 18.0792L58.1143 19.6587L57.3639 21.727L52.92 20.1475L53.6705 18.0792Z" fill="url(#paint0_linear)"/>
<path d="M17.9147 60.5036C18.7629 60.5036 19.4505 59.823 19.4505 58.9835C19.4505 58.1439 18.7629 57.4634 17.9147 57.4634C17.0666 57.4634 16.379 58.1439 16.379 58.9835C16.379 59.823 17.0666 60.5036 17.9147 60.5036Z" fill="#368EC0"/>
<path d="M17.9147 60.5036C18.7629 60.5036 19.4505 59.823 19.4505 58.9835C19.4505 58.1439 18.7629 57.4634 17.9147 57.4634C17.0666 57.4634 16.379 58.1439 16.379 58.9835C16.379 59.823 17.0666 60.5036 17.9147 60.5036Z" fill="url(#paint1_linear)"/>
<path d="M50.0436 34.8921L50.4513 34.4885C52.3736 32.5858 54.6188 31.0922 57.1247 30.0489L66.7251 26.052C66.7251 26.052 69.3323 24.9391 69.9148 24.6124C70.6952 24.1747 71.4684 23.5721 72.279 22.7697C77.0225 18.0745 77.2606 10.504 72.8213 5.53455C72.4803 5.15275 71.9616 4.97587 71.4554 5.06962C70.9493 5.16306 70.5298 5.51264 70.3506 5.99045L66.8522 15.3188L64.2415 14.3623L67.9204 4.45231C68.098 3.97385 68.0088 3.43837 67.6854 3.04176C67.362 2.64514 66.8519 2.44554 66.342 2.51659C61.3903 3.20414 57.3662 6.66995 55.9449 11.3224L49.9026 9.10845C49.4972 8.95992 49.0462 8.99632 48.6704 9.20768C48.2946 9.4192 48.0322 9.78408 47.9538 10.2047L46.5634 17.6523C45.9128 21.1374 44.3896 24.3521 42.1294 27.0575L29.2697 14.3302L30.1841 13.4252C30.7561 12.8589 30.7561 11.941 30.1841 11.3747L29.2178 10.4183C32.1633 6.83926 35.9314 6.6627 38.6714 7.20027C39.2754 7.319 39.8904 7.05045 40.2093 6.5285C40.5281 6.00672 40.4832 5.34333 40.0966 4.86842C38.8032 3.27953 37.1942 2.04103 35.3151 1.18787C30.7724 -0.877856 25.4137 -0.197389 21.546 2.82476L20.7462 2.03314C20.1742 1.46689 19.2468 1.46689 18.6747 2.03314L9.7803 10.837C9.21229 11.3992 9.20757 12.3092 9.77005 12.8771C10.2772 13.3892 10.037 14.5164 9.25607 15.2894C8.47517 16.0623 7.33638 16.3001 6.81898 15.7981C6.24527 15.2413 5.3257 15.246 4.75785 15.8082L0.429062 20.0927C-0.143021 20.659 -0.143021 21.5769 0.429062 22.1432L9.86689 31.4848C10.1528 31.7678 10.5278 31.9094 10.9027 31.9094C11.2775 31.9094 11.6523 31.7678 11.9384 31.4848L16.2672 27.2001C16.8334 26.6396 16.8401 25.733 16.282 25.1645C15.7786 24.6517 16.0203 23.526 16.7991 22.7552C17.5777 21.9845 18.7151 21.7451 19.2331 22.2434C19.8073 22.7959 20.7234 22.7893 21.2897 22.2289L22.0984 21.4284L35.0265 34.2247L13.7862 55.2481C12.7384 56.2852 12.1612 57.6642 12.1612 59.1311C12.1612 60.5979 12.7384 61.9769 13.7862 63.014C14.8677 64.0847 16.2884 64.6198 17.7092 64.6198C19.1299 64.6198 20.5506 64.0845 21.6321 63.014L42.8721 41.9906L65.6895 64.5754C65.9755 64.8584 66.3505 65 66.7253 65C67.1001 65 67.4749 64.8584 67.7611 64.5754L72.8618 59.5266C73.1365 59.2547 73.2908 58.886 73.2908 58.5014C73.2908 58.1169 73.1365 57.7481 72.8618 57.4762L50.0436 34.8921ZM64.1861 6.10418L61.4942 13.3556L58.702 12.3324C59.5056 9.52037 61.5347 7.24989 64.1861 6.10418ZM34.0929 3.82307C34.3283 3.92987 34.5579 4.04441 34.7822 4.16652C31.8062 4.53801 29.1965 5.96467 27.1392 8.3608L23.6359 4.89322C26.6251 2.71409 30.6575 2.26093 34.0929 3.82307ZM19.7106 5.10861L27.0769 12.3998L20.4108 18.9979L13.0445 11.7068L19.7106 5.10861ZM10.9027 28.4091L3.53638 21.1179L5.79362 18.8837L13.1599 26.1749L10.9027 28.4091ZM14.7274 20.7047C14.1983 21.2285 13.7974 21.8182 13.5219 22.4325L9.58239 18.5333C10.2025 18.2604 10.798 17.8635 11.3273 17.3396C11.9191 16.7539 12.3531 16.0869 12.6275 15.3949L16.6928 19.4187C15.9931 19.69 15.319 20.1193 14.7274 20.7047ZM24.1696 19.378L27.1982 16.3803L40.1269 29.1759L37.0977 32.1742L24.1696 19.378ZM19.5606 60.9636C19.066 61.4532 18.4084 61.7227 17.7091 61.7227C17.0097 61.7227 16.3522 61.4532 15.8577 60.9636C14.8369 59.953 14.8369 58.3089 15.8577 57.2985L42.8631 30.5684C46.2885 27.1782 48.5641 22.8939 49.4443 18.1791L50.5185 12.4259L67.2077 18.5412C67.9656 18.8191 68.8081 18.4362 69.0895 17.686L72.1029 9.65069C73.8689 13.2724 73.2122 17.7453 70.2074 20.7194C69.5862 21.3343 69.0179 21.7825 68.4702 22.0897C68.13 22.2806 65.4024 23.4569 65.4024 23.4569L55.9887 27.376C53.1314 28.5655 50.5714 30.2686 48.3796 32.4381L19.5606 60.9636ZM66.7253 61.4997L44.9436 39.9402L47.972 36.9427L69.7545 58.5016L66.7253 61.4997Z" fill="#368EC0"/>
<path d="M50.0436 34.8921L50.4513 34.4885C52.3736 32.5858 54.6188 31.0922 57.1247 30.0489L66.7251 26.052C66.7251 26.052 69.3323 24.9391 69.9148 24.6124C70.6952 24.1747 71.4684 23.5721 72.279 22.7697C77.0225 18.0745 77.2606 10.504 72.8213 5.53455C72.4803 5.15275 71.9616 4.97587 71.4554 5.06962C70.9493 5.16306 70.5298 5.51264 70.3506 5.99045L66.8522 15.3188L64.2415 14.3623L67.9204 4.45231C68.098 3.97385 68.0088 3.43837 67.6854 3.04176C67.362 2.64514 66.8519 2.44554 66.342 2.51659C61.3903 3.20414 57.3662 6.66995 55.9449 11.3224L49.9026 9.10845C49.4972 8.95992 49.0462 8.99632 48.6704 9.20768C48.2946 9.4192 48.0322 9.78408 47.9538 10.2047L46.5634 17.6523C45.9128 21.1374 44.3896 24.3521 42.1294 27.0575L29.2697 14.3302L30.1841 13.4252C30.7561 12.8589 30.7561 11.941 30.1841 11.3747L29.2178 10.4183C32.1633 6.83926 35.9314 6.6627 38.6714 7.20027C39.2754 7.319 39.8904 7.05045 40.2093 6.5285C40.5281 6.00672 40.4832 5.34333 40.0966 4.86842C38.8032 3.27953 37.1942 2.04103 35.3151 1.18787C30.7724 -0.877856 25.4137 -0.197389 21.546 2.82476L20.7462 2.03314C20.1742 1.46689 19.2468 1.46689 18.6747 2.03314L9.7803 10.837C9.21229 11.3992 9.20757 12.3092 9.77005 12.8771C10.2772 13.3892 10.037 14.5164 9.25607 15.2894C8.47517 16.0623 7.33638 16.3001 6.81898 15.7981C6.24527 15.2413 5.3257 15.246 4.75785 15.8082L0.429062 20.0927C-0.143021 20.659 -0.143021 21.5769 0.429062 22.1432L9.86689 31.4848C10.1528 31.7678 10.5278 31.9094 10.9027 31.9094C11.2775 31.9094 11.6523 31.7678 11.9384 31.4848L16.2672 27.2001C16.8334 26.6396 16.8401 25.733 16.282 25.1645C15.7786 24.6517 16.0203 23.526 16.7991 22.7552C17.5777 21.9845 18.7151 21.7451 19.2331 22.2434C19.8073 22.7959 20.7234 22.7893 21.2897 22.2289L22.0984 21.4284L35.0265 34.2247L13.7862 55.2481C12.7384 56.2852 12.1612 57.6642 12.1612 59.1311C12.1612 60.5979 12.7384 61.9769 13.7862 63.014C14.8677 64.0847 16.2884 64.6198 17.7092 64.6198C19.1299 64.6198 20.5506 64.0845 21.6321 63.014L42.8721 41.9906L65.6895 64.5754C65.9755 64.8584 66.3505 65 66.7253 65C67.1001 65 67.4749 64.8584 67.7611 64.5754L72.8618 59.5266C73.1365 59.2547 73.2908 58.886 73.2908 58.5014C73.2908 58.1169 73.1365 57.7481 72.8618 57.4762L50.0436 34.8921ZM64.1861 6.10418L61.4942 13.3556L58.702 12.3324C59.5056 9.52037 61.5347 7.24989 64.1861 6.10418ZM34.0929 3.82307C34.3283 3.92987 34.5579 4.04441 34.7822 4.16652C31.8062 4.53801 29.1965 5.96467 27.1392 8.3608L23.6359 4.89322C26.6251 2.71409 30.6575 2.26093 34.0929 3.82307ZM19.7106 5.10861L27.0769 12.3998L20.4108 18.9979L13.0445 11.7068L19.7106 5.10861ZM10.9027 28.4091L3.53638 21.1179L5.79362 18.8837L13.1599 26.1749L10.9027 28.4091ZM14.7274 20.7047C14.1983 21.2285 13.7974 21.8182 13.5219 22.4325L9.58239 18.5333C10.2025 18.2604 10.798 17.8635 11.3273 17.3396C11.9191 16.7539 12.3531 16.0869 12.6275 15.3949L16.6928 19.4187C15.9931 19.69 15.319 20.1193 14.7274 20.7047ZM24.1696 19.378L27.1982 16.3803L40.1269 29.1759L37.0977 32.1742L24.1696 19.378ZM19.5606 60.9636C19.066 61.4532 18.4084 61.7227 17.7091 61.7227C17.0097 61.7227 16.3522 61.4532 15.8577 60.9636C14.8369 59.953 14.8369 58.3089 15.8577 57.2985L42.8631 30.5684C46.2885 27.1782 48.5641 22.8939 49.4443 18.1791L50.5185 12.4259L67.2077 18.5412C67.9656 18.8191 68.8081 18.4362 69.0895 17.686L72.1029 9.65069C73.8689 13.2724 73.2122 17.7453 70.2074 20.7194C69.5862 21.3343 69.0179 21.7825 68.4702 22.0897C68.13 22.2806 65.4024 23.4569 65.4024 23.4569L55.9887 27.376C53.1314 28.5655 50.5714 30.2686 48.3796 32.4381L19.5606 60.9636ZM66.7253 61.4997L44.9436 39.9402L47.972 36.9427L69.7545 58.5016L66.7253 61.4997Z" fill="url(#paint2_linear)"/>
<defs>
<linearGradient id="paint0_linear" x1="11" y1="6.41446" x2="48.4945" y2="62.1672" gradientUnits="userSpaceOnUse">
<stop stop-color="#F9C223"/>
<stop offset="0.583333" stop-color="white" stop-opacity="0"/>
</linearGradient>
<linearGradient id="paint1_linear" x1="11" y1="6.41446" x2="48.4945" y2="62.1672" gradientUnits="userSpaceOnUse">
<stop stop-color="#F9C223"/>
<stop offset="0.583333" stop-color="white" stop-opacity="0"/>
</linearGradient>
<linearGradient id="paint2_linear" x1="11" y1="6.41446" x2="48.4945" y2="62.1672" gradientUnits="userSpaceOnUse">
<stop stop-color="#F9C223"/>
<stop offset="0.583333" stop-color="white" stop-opacity="0"/>
</linearGradient>
</defs>
</svg>
