<svg width="64" height="64" viewBox="0 0 64 64" fill="none" xmlns="http://www.w3.org/2000/svg">
<path d="M61.091 32.2684V23.2733C61.091 20.2232 58.7251 17.7427 55.7358 17.5021L47.3822 2.91144C46.6081 1.56201 45.358 0.597527 43.8623 0.197033C42.3736 -0.200733 40.8169 0.00817284 39.4844 0.78366L10.8477 17.4552H5.81822C2.60945 17.4552 0 20.0645 0 23.2733V58.1819C0 61.3906 2.60931 64 5.81822 64H55.2727C58.4815 64 61.091 61.3907 61.091 58.1819V49.1868C62.7804 48.5843 64 46.985 64 45.0912V36.364C64 34.4703 62.7804 32.8709 61.091 32.2684ZM52.3555 17.4552H39.6777L49.1862 11.9195L52.3555 17.4552ZM47.7408 9.39502L33.896 17.4552H28.1533L46.3049 6.8872L47.7408 9.39502ZM40.9489 3.29776C41.6065 2.91281 42.3749 2.81054 43.1094 3.00662C43.8523 3.20544 44.4717 3.68557 44.8566 4.35742L44.8596 4.36274L22.3719 17.4552H16.6295L40.9489 3.29776ZM58.1818 58.1819C58.1818 59.7855 56.8764 61.0909 55.2727 61.0909H5.81822C4.21458 61.0909 2.90918 59.7855 2.90918 58.1819V23.2733C2.90918 21.6697 4.21458 20.3643 5.81822 20.3643H55.2727C56.8764 20.3643 58.1818 21.6697 58.1818 23.2733V32.0005H49.4545C44.642 32.0005 40.7273 35.9151 40.7273 40.7276C40.7273 45.5401 44.642 49.4547 49.4545 49.4547H58.1818V58.1819ZM61.091 45.0912C61.091 45.8937 60.439 46.5457 59.6364 46.5457H49.4545C46.2458 46.5457 43.6363 43.9365 43.6363 40.7276C43.6363 37.5189 46.2456 34.9095 49.4545 34.9095H59.6364C60.4389 34.9095 61.091 35.5614 61.091 36.364V45.0912Z" fill="#368EC0"/>
<path d="M61.091 32.2684V23.2733C61.091 20.2232 58.7251 17.7427 55.7358 17.5021L47.3822 2.91144C46.6081 1.56201 45.358 0.597527 43.8623 0.197033C42.3736 -0.200733 40.8169 0.00817284 39.4844 0.78366L10.8477 17.4552H5.81822C2.60945 17.4552 0 20.0645 0 23.2733V58.1819C0 61.3906 2.60931 64 5.81822 64H55.2727C58.4815 64 61.091 61.3907 61.091 58.1819V49.1868C62.7804 48.5843 64 46.985 64 45.0912V36.364C64 34.4703 62.7804 32.8709 61.091 32.2684ZM52.3555 17.4552H39.6777L49.1862 11.9195L52.3555 17.4552ZM47.7408 9.39502L33.896 17.4552H28.1533L46.3049 6.8872L47.7408 9.39502ZM40.9489 3.29776C41.6065 2.91281 42.3749 2.81054 43.1094 3.00662C43.8523 3.20544 44.4717 3.68557 44.8566 4.35742L44.8596 4.36274L22.3719 17.4552H16.6295L40.9489 3.29776ZM58.1818 58.1819C58.1818 59.7855 56.8764 61.0909 55.2727 61.0909H5.81822C4.21458 61.0909 2.90918 59.7855 2.90918 58.1819V23.2733C2.90918 21.6697 4.21458 20.3643 5.81822 20.3643H55.2727C56.8764 20.3643 58.1818 21.6697 58.1818 23.2733V32.0005H49.4545C44.642 32.0005 40.7273 35.9151 40.7273 40.7276C40.7273 45.5401 44.642 49.4547 49.4545 49.4547H58.1818V58.1819ZM61.091 45.0912C61.091 45.8937 60.439 46.5457 59.6364 46.5457H49.4545C46.2458 46.5457 43.6363 43.9365 43.6363 40.7276C43.6363 37.5189 46.2456 34.9095 49.4545 34.9095H59.6364C60.4389 34.9095 61.091 35.5614 61.091 36.364V45.0912Z" fill="url(#paint0_linear)"/>
<path d="M49.4543 37.8186C47.8506 37.8186 46.5452 39.124 46.5452 40.7276C46.5452 42.3313 47.8506 43.6366 49.4543 43.6366C51.0579 43.6366 52.3633 42.3313 52.3633 40.7276C52.3634 39.124 51.058 37.8186 49.4543 37.8186Z" fill="#368EC0"/>
<path d="M49.4543 37.8186C47.8506 37.8186 46.5452 39.124 46.5452 40.7276C46.5452 42.3313 47.8506 43.6366 49.4543 43.6366C51.0579 43.6366 52.3633 42.3313 52.3633 40.7276C52.3634 39.124 51.058 37.8186 49.4543 37.8186Z" fill="url(#paint1_linear)"/>
<defs>
<linearGradient id="paint0_linear" x1="9.26314" y1="6.31578" x2="47.9999" y2="55.5788" gradientUnits="userSpaceOnUse">
<stop stop-color="#F9C223"/>
<stop offset="0.583333" stop-color="white" stop-opacity="0"/>
</linearGradient>
<linearGradient id="paint1_linear" x1="9.26314" y1="6.31578" x2="47.9999" y2="55.5788" gradientUnits="userSpaceOnUse">
<stop stop-color="#F9C223"/>
<stop offset="0.583333" stop-color="white" stop-opacity="0"/>
</linearGradient>
</defs>
</svg>
