<svg width="54" height="76" viewBox="0 0 54 76" fill="none" xmlns="http://www.w3.org/2000/svg">
<path d="M53.0502 66.4644C53.1583 66.2622 53.2096 66.0345 53.1985 65.8055C53.1875 65.5765 53.1144 65.3548 52.9873 65.1641L49.4497 59.8577C48.2642 58.0716 47.4504 56.0652 47.0568 53.9579C46.6632 51.8507 46.6978 49.6858 47.1586 47.5922C47.8219 44.5965 47.729 41.4827 46.8883 38.5318L45.8289 34.8238L47.8284 32.491C48.0252 32.2614 48.1333 31.969 48.1334 31.6667V26.6C48.1334 26.3626 48.0667 26.13 47.9408 25.9286L41.6075 15.7953C41.4515 15.5456 41.2133 15.3581 40.934 15.265L31.3196 12.0602C31.5728 11.4494 31.703 10.7946 31.7026 10.1333V3.8C31.7026 3.591 31.6509 3.38525 31.552 3.20109C31.4532 3.01693 31.3103 2.86009 31.1362 2.74455L28.0566 0.701059C27.425 0.281695 26.6916 0.0411061 25.9344 0.00481549C25.1771 -0.0314751 24.4241 0.137885 23.7553 0.494931C23.0865 0.851976 22.5269 1.38339 22.1357 2.0328C21.7445 2.68222 21.5363 3.42541 21.5334 4.18354V10.1333C21.533 10.7907 21.6617 11.4418 21.9122 12.0496L12.2661 15.265C11.9868 15.3581 11.7486 15.5456 11.5925 15.7953L5.2592 25.9286C5.13336 26.13 5.06666 26.3626 5.06669 26.6V31.6667C5.06674 31.969 5.17488 32.2614 5.37161 32.491L7.37111 34.8238L6.31171 38.5317C5.47101 41.4826 5.37812 44.5964 6.04144 47.5922C6.50223 49.6858 6.53685 51.8507 6.14324 53.9579C5.74964 56.0652 4.93586 58.0716 3.7504 59.8577L0.212786 65.1641C0.0855931 65.3548 0.0125613 65.5765 0.00148044 65.8055C-0.00960043 66.0345 0.0416851 66.2622 0.149867 66.4644C0.258049 66.6665 0.419071 66.8355 0.615758 66.9533C0.812445 67.0711 1.03742 67.1334 1.26669 67.1333H15.6877L15.2027 74.6518C15.1915 74.8246 15.2159 74.9979 15.2744 75.161C15.3329 75.324 15.4242 75.4733 15.5427 75.5997C15.6611 75.726 15.8042 75.8268 15.9632 75.8956C16.1221 75.9645 16.2935 76 16.4667 76H20.2667C20.5559 76 20.8364 75.901 21.0616 75.7196C21.2867 75.5381 21.443 75.285 21.5044 75.0024L23.2151 67.1333H29.9849L31.6956 75.0024C31.757 75.285 31.9133 75.5381 32.1385 75.7196C32.3637 75.901 32.6442 76 32.9334 76H36.7334C36.9066 76 37.0779 75.9645 37.2369 75.8956C37.3958 75.8268 37.5389 75.726 37.6574 75.5997C37.7759 75.4733 37.8672 75.324 37.9256 75.161C37.9841 74.9979 38.0085 74.8246 37.9974 74.6518L37.5123 67.1333H51.9334C52.1626 67.1333 52.3876 67.0711 52.5843 66.9533C52.781 66.8355 52.942 66.6665 53.0502 66.4644ZM35.5448 35.3103L37.4196 27.8109L38.9536 29.3449L35.5448 35.3103ZM38.6412 34.9975L40.8947 36.6876L39.0354 38.8568L37.153 37.6019L38.6412 34.9975ZM34.2 15.6907L38.1884 17.0202L35.2165 19.9921L34.2 19.4838V15.6907ZM26.618 12.6667C25.9439 12.6683 25.2968 12.4024 24.8185 11.9275C24.3402 11.4526 24.0698 10.8074 24.0667 10.1333V7.6H29.1692V10.1333C29.1661 10.8074 28.8957 11.4526 28.4174 11.9275C27.9391 12.4024 27.292 12.6683 26.618 12.6667ZM25.7306 2.53333C26.0598 2.53295 26.3818 2.62992 26.656 2.81204L29.1692 4.47964V5.06667H24.0667V4.18354C24.069 3.74422 24.2455 3.32375 24.5574 3.01438C24.8693 2.70501 25.2913 2.53201 25.7306 2.53333ZM19 15.6907V19.4838L17.9835 19.9921L15.0116 17.0202L19 15.6907ZM7.60003 26.9633L12.8969 18.4882L16.8376 22.429C17.0256 22.617 17.268 22.7411 17.5305 22.7836C17.7929 22.8262 18.0621 22.7852 18.2999 22.6663L20.8332 21.3996C21.0436 21.2944 21.2206 21.1327 21.3442 20.9326C21.4679 20.7325 21.5334 20.5019 21.5334 20.2667V14.8463L23.5533 14.173C24.0843 14.5746 24.6892 14.8677 25.3334 15.0359V29.1333H27.8667V15.0449C28.5198 14.8797 29.1334 14.5862 29.6719 14.1814L31.6667 14.8463V20.2667C31.6667 20.5019 31.7322 20.7325 31.8558 20.9326C31.9795 21.1327 32.1564 21.2944 32.3668 21.3996L34.9002 22.6663C35.138 22.7852 35.4071 22.8262 35.6696 22.7836C35.932 22.7411 36.1744 22.617 36.3624 22.429L40.3032 18.4882L45.6 26.9633V31.1981L42.5468 34.7601L39.9079 32.781L41.6332 29.7618C41.771 29.5205 41.8258 29.2406 41.7889 28.9652C41.752 28.6898 41.6256 28.4342 41.4291 28.2377L37.6291 24.4377C37.4706 24.2792 37.2729 24.1655 37.0561 24.1084C36.8394 24.0513 36.6113 24.0527 36.3953 24.1126C36.1793 24.1724 35.983 24.2885 35.8265 24.449C35.67 24.6095 35.5589 24.8086 35.5046 25.0261L33.2111 34.2H19.989L17.6955 25.0261C17.6411 24.8086 17.53 24.6095 17.3735 24.449C17.2171 24.2885 17.0208 24.1724 16.8048 24.1126C16.5887 24.0527 16.3607 24.0513 16.1439 24.1084C15.9272 24.1655 15.7294 24.2792 15.571 24.4377L11.771 28.2377C11.5745 28.4342 11.4481 28.6898 11.4112 28.9652C11.3743 29.2406 11.429 29.5205 11.5669 29.7618L13.2921 32.781L10.6532 34.7601L7.60003 31.1981V26.9633ZM16.047 37.6019L14.1647 38.8568L12.3053 36.6876L14.5588 34.9975L16.047 37.6019ZM14.2465 29.3449L15.7805 27.8109L17.6553 35.3103L14.2465 29.3449ZM3.6335 64.6L5.8582 61.2629C7.23266 59.1922 8.17618 56.866 8.63253 54.4229C9.08888 51.9799 9.04873 49.4699 8.51446 47.0427C7.94233 44.4587 8.02247 41.773 8.74763 39.2277L9.34718 37.1292L12.9716 41.3577C13.1731 41.5927 13.4536 41.7458 13.7603 41.7881C14.0669 41.8304 14.3784 41.7589 14.636 41.5872L17.4572 39.7064L15.8511 64.6H3.6335ZM23.7658 64.6L26.6 51.5628L29.4343 64.6H23.7658ZM33.9542 73.4667L27.8378 45.331C27.7764 45.0484 27.6201 44.7953 27.3949 44.6138C27.1697 44.4323 26.8892 44.3333 26.6 44.3333C26.3108 44.3333 26.0303 44.4323 25.8052 44.6138C25.58 44.7953 25.4237 45.0484 25.3623 45.331L19.2459 73.4667H17.8178L20.1876 36.7333H33.0124L35.3823 73.4667H33.9542ZM37.3489 64.6L35.7428 39.7064L38.5641 41.5872C38.8216 41.759 39.1332 41.8305 39.4398 41.7882C39.7465 41.7459 40.027 41.5928 40.2284 41.3577L43.8529 37.1292L44.4524 39.2277C45.1776 41.773 45.2577 44.4587 44.6856 47.0427C44.1513 49.4699 44.1112 51.9799 44.5675 54.4229C45.0239 56.866 45.9674 59.1922 47.3418 61.2629L49.5666 64.6H37.3489Z" fill="#368EC0"/>
<path d="M53.0502 66.4644C53.1583 66.2622 53.2096 66.0345 53.1985 65.8055C53.1875 65.5765 53.1144 65.3548 52.9873 65.1641L49.4497 59.8577C48.2642 58.0716 47.4504 56.0652 47.0568 53.9579C46.6632 51.8507 46.6978 49.6858 47.1586 47.5922C47.8219 44.5965 47.729 41.4827 46.8883 38.5318L45.8289 34.8238L47.8284 32.491C48.0252 32.2614 48.1333 31.969 48.1334 31.6667V26.6C48.1334 26.3626 48.0667 26.13 47.9408 25.9286L41.6075 15.7953C41.4515 15.5456 41.2133 15.3581 40.934 15.265L31.3196 12.0602C31.5728 11.4494 31.703 10.7946 31.7026 10.1333V3.8C31.7026 3.591 31.6509 3.38525 31.552 3.20109C31.4532 3.01693 31.3103 2.86009 31.1362 2.74455L28.0566 0.701059C27.425 0.281695 26.6916 0.0411061 25.9344 0.00481549C25.1771 -0.0314751 24.4241 0.137885 23.7553 0.494931C23.0865 0.851976 22.5269 1.38339 22.1357 2.0328C21.7445 2.68222 21.5363 3.42541 21.5334 4.18354V10.1333C21.533 10.7907 21.6617 11.4418 21.9122 12.0496L12.2661 15.265C11.9868 15.3581 11.7486 15.5456 11.5925 15.7953L5.2592 25.9286C5.13336 26.13 5.06666 26.3626 5.06669 26.6V31.6667C5.06674 31.969 5.17488 32.2614 5.37161 32.491L7.37111 34.8238L6.31171 38.5317C5.47101 41.4826 5.37812 44.5964 6.04144 47.5922C6.50223 49.6858 6.53685 51.8507 6.14324 53.9579C5.74964 56.0652 4.93586 58.0716 3.7504 59.8577L0.212786 65.1641C0.0855931 65.3548 0.0125613 65.5765 0.00148044 65.8055C-0.00960043 66.0345 0.0416851 66.2622 0.149867 66.4644C0.258049 66.6665 0.419071 66.8355 0.615758 66.9533C0.812445 67.0711 1.03742 67.1334 1.26669 67.1333H15.6877L15.2027 74.6518C15.1915 74.8246 15.2159 74.9979 15.2744 75.161C15.3329 75.324 15.4242 75.4733 15.5427 75.5997C15.6611 75.726 15.8042 75.8268 15.9632 75.8956C16.1221 75.9645 16.2935 76 16.4667 76H20.2667C20.5559 76 20.8364 75.901 21.0616 75.7196C21.2867 75.5381 21.443 75.285 21.5044 75.0024L23.2151 67.1333H29.9849L31.6956 75.0024C31.757 75.285 31.9133 75.5381 32.1385 75.7196C32.3637 75.901 32.6442 76 32.9334 76H36.7334C36.9066 76 37.0779 75.9645 37.2369 75.8956C37.3958 75.8268 37.5389 75.726 37.6574 75.5997C37.7759 75.4733 37.8672 75.324 37.9256 75.161C37.9841 74.9979 38.0085 74.8246 37.9974 74.6518L37.5123 67.1333H51.9334C52.1626 67.1333 52.3876 67.0711 52.5843 66.9533C52.781 66.8355 52.942 66.6665 53.0502 66.4644ZM35.5448 35.3103L37.4196 27.8109L38.9536 29.3449L35.5448 35.3103ZM38.6412 34.9975L40.8947 36.6876L39.0354 38.8568L37.153 37.6019L38.6412 34.9975ZM34.2 15.6907L38.1884 17.0202L35.2165 19.9921L34.2 19.4838V15.6907ZM26.618 12.6667C25.9439 12.6683 25.2968 12.4024 24.8185 11.9275C24.3402 11.4526 24.0698 10.8074 24.0667 10.1333V7.6H29.1692V10.1333C29.1661 10.8074 28.8957 11.4526 28.4174 11.9275C27.9391 12.4024 27.292 12.6683 26.618 12.6667ZM25.7306 2.53333C26.0598 2.53295 26.3818 2.62992 26.656 2.81204L29.1692 4.47964V5.06667H24.0667V4.18354C24.069 3.74422 24.2455 3.32375 24.5574 3.01438C24.8693 2.70501 25.2913 2.53201 25.7306 2.53333ZM19 15.6907V19.4838L17.9835 19.9921L15.0116 17.0202L19 15.6907ZM7.60003 26.9633L12.8969 18.4882L16.8376 22.429C17.0256 22.617 17.268 22.7411 17.5305 22.7836C17.7929 22.8262 18.0621 22.7852 18.2999 22.6663L20.8332 21.3996C21.0436 21.2944 21.2206 21.1327 21.3442 20.9326C21.4679 20.7325 21.5334 20.5019 21.5334 20.2667V14.8463L23.5533 14.173C24.0843 14.5746 24.6892 14.8677 25.3334 15.0359V29.1333H27.8667V15.0449C28.5198 14.8797 29.1334 14.5862 29.6719 14.1814L31.6667 14.8463V20.2667C31.6667 20.5019 31.7322 20.7325 31.8558 20.9326C31.9795 21.1327 32.1564 21.2944 32.3668 21.3996L34.9002 22.6663C35.138 22.7852 35.4071 22.8262 35.6696 22.7836C35.932 22.7411 36.1744 22.617 36.3624 22.429L40.3032 18.4882L45.6 26.9633V31.1981L42.5468 34.7601L39.9079 32.781L41.6332 29.7618C41.771 29.5205 41.8258 29.2406 41.7889 28.9652C41.752 28.6898 41.6256 28.4342 41.4291 28.2377L37.6291 24.4377C37.4706 24.2792 37.2729 24.1655 37.0561 24.1084C36.8394 24.0513 36.6113 24.0527 36.3953 24.1126C36.1793 24.1724 35.983 24.2885 35.8265 24.449C35.67 24.6095 35.5589 24.8086 35.5046 25.0261L33.2111 34.2H19.989L17.6955 25.0261C17.6411 24.8086 17.53 24.6095 17.3735 24.449C17.2171 24.2885 17.0208 24.1724 16.8048 24.1126C16.5887 24.0527 16.3607 24.0513 16.1439 24.1084C15.9272 24.1655 15.7294 24.2792 15.571 24.4377L11.771 28.2377C11.5745 28.4342 11.4481 28.6898 11.4112 28.9652C11.3743 29.2406 11.429 29.5205 11.5669 29.7618L13.2921 32.781L10.6532 34.7601L7.60003 31.1981V26.9633ZM16.047 37.6019L14.1647 38.8568L12.3053 36.6876L14.5588 34.9975L16.047 37.6019ZM14.2465 29.3449L15.7805 27.8109L17.6553 35.3103L14.2465 29.3449ZM3.6335 64.6L5.8582 61.2629C7.23266 59.1922 8.17618 56.866 8.63253 54.4229C9.08888 51.9799 9.04873 49.4699 8.51446 47.0427C7.94233 44.4587 8.02247 41.773 8.74763 39.2277L9.34718 37.1292L12.9716 41.3577C13.1731 41.5927 13.4536 41.7458 13.7603 41.7881C14.0669 41.8304 14.3784 41.7589 14.636 41.5872L17.4572 39.7064L15.8511 64.6H3.6335ZM23.7658 64.6L26.6 51.5628L29.4343 64.6H23.7658ZM33.9542 73.4667L27.8378 45.331C27.7764 45.0484 27.6201 44.7953 27.3949 44.6138C27.1697 44.4323 26.8892 44.3333 26.6 44.3333C26.3108 44.3333 26.0303 44.4323 25.8052 44.6138C25.58 44.7953 25.4237 45.0484 25.3623 45.331L19.2459 73.4667H17.8178L20.1876 36.7333H33.0124L35.3823 73.4667H33.9542ZM37.3489 64.6L35.7428 39.7064L38.5641 41.5872C38.8216 41.759 39.1332 41.8305 39.4398 41.7882C39.7465 41.7459 40.027 41.5928 40.2284 41.3577L43.8529 37.1292L44.4524 39.2277C45.1776 41.773 45.2577 44.4587 44.6856 47.0427C44.1513 49.4699 44.1112 51.9799 44.5675 54.4229C45.0239 56.866 45.9674 59.1922 47.3418 61.2629L49.5666 64.6H37.3489Z" fill="url(#paint0_linear)"/>
<defs>
<linearGradient id="paint0_linear" x1="7.69998" y1="7.49998" x2="54.7171" y2="49.3554" gradientUnits="userSpaceOnUse">
<stop stop-color="#F9C223"/>
<stop offset="0.583333" stop-color="white" stop-opacity="0"/>
</linearGradient>
</defs>
</svg>
