<svg width="48" height="76" viewBox="0 0 48 76" fill="none" xmlns="http://www.w3.org/2000/svg">
<path d="M30.0656 71.1428C29.305 70.8378 28.4405 71.2074 28.1355 71.9684C27.8806 72.6042 27.2343 73.0314 26.5275 73.0314H21.1048C20.3979 73.0314 19.7516 72.6042 19.4967 71.9684C19.1917 71.2074 18.3276 70.8385 17.5666 71.1428C16.8057 71.448 16.4361 72.312 16.7411 73.0729C17.4541 74.8512 19.1668 76.0001 21.1048 76.0001H26.5275C28.4655 76.0001 30.1781 74.8512 30.8909 73.0729C31.1961 72.312 30.8265 71.448 30.0656 71.1428Z" fill="#368EC0"/>
<path d="M30.0656 71.1428C29.305 70.8378 28.4405 71.2074 28.1355 71.9684C27.8806 72.6042 27.2343 73.0314 26.5275 73.0314H21.1048C20.3979 73.0314 19.7516 72.6042 19.4967 71.9684C19.1917 71.2074 18.3276 70.8385 17.5666 71.1428C16.8057 71.448 16.4361 72.312 16.7411 73.0729C17.4541 74.8512 19.1668 76.0001 21.1048 76.0001H26.5275C28.4655 76.0001 30.1781 74.8512 30.8909 73.0729C31.1961 72.312 30.8265 71.448 30.0656 71.1428Z" fill="url(#paint0_linear)"/>
<path d="M47.4979 63.4959C47.0948 61.4172 45.8141 59.6175 43.9834 58.5547C44.3163 58.2828 44.6287 57.9821 44.9137 57.6509C46.3195 56.0176 46.9421 53.8586 46.6213 51.7278C46.1004 48.2656 44.6269 45.0307 42.3601 42.3727C40.6628 40.3826 38.5767 38.7789 36.2419 37.6519C39.0992 34.6039 40.852 30.5085 40.852 26.011C40.8518 18.2278 35.605 11.6469 28.4626 9.61934C29.4355 8.45782 29.9663 7.0067 29.9663 5.47334C29.9664 2.4553 27.511 0 24.4931 0C24.4933 0 24.493 0 24.4931 0C23.2749 0 22.1334 0.39618 21.28 1.11536C20.3369 1.91009 19.8175 3.02709 19.8173 4.26045C19.8173 5.08012 20.4819 5.74483 21.3017 5.74483C22.1214 5.74483 22.7861 5.08027 22.7861 4.26045C22.7861 3.90732 22.9229 3.61297 23.1931 3.38527C23.5119 3.11659 23.9734 2.9686 24.4928 2.9686C25.8739 2.9686 26.9977 4.09198 26.9977 5.47304C26.9977 6.40849 26.6334 7.28784 25.972 7.94927C25.3105 8.61056 24.4314 8.97483 23.4962 8.97483C23.4963 8.97483 23.496 8.97483 23.4962 8.97483C23.4598 8.97483 23.4239 8.97765 23.3883 8.98032C14.1917 9.20832 6.78035 16.7604 6.7802 26.0109C6.7802 30.5084 8.53295 34.6038 11.3902 37.6518C9.0556 38.7787 6.96946 40.3823 5.27223 42.3725C3.00544 45.0306 1.5319 48.2655 1.01088 51.7275C0.690257 53.8585 1.31266 56.0175 2.71851 57.6507C3.00351 57.9819 3.31582 58.2828 3.64877 58.5546C1.81809 59.6174 0.537218 61.4171 0.13421 63.4958C-0.269985 65.5798 0.248656 67.7341 1.55684 69.406L4.73562 73.4679C6.01991 75.1091 7.97082 75.9915 9.94964 75.9915C11.073 75.9915 12.2056 75.7071 13.2301 75.1156C16.0595 73.4821 17.2719 69.9653 16.0504 66.9354L14.1221 62.1515C13.9932 61.8319 13.8409 61.5254 13.671 61.2309H24.5583C25.3781 61.2309 26.0426 60.5662 26.0426 59.7465C26.0426 58.9269 25.3781 58.2622 24.5583 58.2622H10.8492V55.133C10.8492 54.7299 11.1769 54.4022 11.5799 54.4022H36.0524C36.4552 54.4022 36.7831 54.7299 36.7831 55.133V58.4675C35.3103 59.2748 34.1476 60.5698 33.5099 62.1515L31.5816 66.9352C30.3601 69.9653 31.5725 73.4821 34.4019 75.1156C35.4266 75.7071 36.5587 75.9915 37.6824 75.9915C39.661 75.9915 41.6123 75.1089 42.8965 73.4679L46.0752 69.406C47.3837 67.7341 47.9021 65.58 47.4979 63.4959ZM9.74881 26.011C9.74895 18.2544 16.0596 11.9439 23.8161 11.9437C31.5725 11.9439 37.8832 18.2544 37.8834 26.011C37.8834 33.7676 31.5728 40.0781 23.8161 40.0783C16.0595 40.0781 9.74881 33.7676 9.74881 26.011ZM11.369 63.2615L13.2974 68.0455C13.969 69.712 13.302 71.6463 11.7459 72.5448C10.19 73.4433 8.18116 73.054 7.07366 71.6386L3.89487 67.5766C3.11662 66.5822 2.80816 65.3009 3.04863 64.0612C3.2891 62.8214 4.0543 61.7482 5.14798 61.1168C6.24152 60.4853 7.55356 60.3596 8.74745 60.7709C9.94133 61.1825 10.8968 62.0905 11.369 63.2615ZM36.0622 48.4648C35.2424 48.4648 34.5778 49.1295 34.5778 49.9492V51.4336H13.0642V49.9492C13.0642 49.1295 12.3996 48.4648 11.5798 48.4648C10.76 48.4648 10.0954 49.1295 10.0954 49.9492V51.7455C8.79257 52.3186 7.88027 53.621 7.88027 55.1331V57.2292C6.75616 57.1168 5.71309 56.5792 4.96837 55.7141C4.12718 54.7366 3.75475 53.4446 3.94653 52.1694C4.79634 46.5209 8.56249 41.8539 13.8497 39.8185C16.654 41.8482 20.0974 43.0469 23.8161 43.0469C27.5347 43.0469 30.9782 41.8482 33.7825 39.8185C39.0697 41.8539 42.8358 46.5209 43.6856 52.1694C43.8774 53.4446 43.505 54.7366 42.6636 55.7141C41.9191 56.5792 40.8759 57.1168 39.7517 57.2292V55.1331C39.7517 53.6248 38.844 52.3253 37.5466 51.7499V49.9492C37.5466 49.1295 36.882 48.4648 36.0622 48.4648ZM43.7373 67.5765L40.5586 71.6385C39.4512 73.0535 37.4426 73.443 35.8864 72.5447C34.3302 71.6462 33.6633 69.7119 34.3351 68.0451L36.2635 63.2612C36.7356 62.0901 37.6911 61.1822 38.885 60.7706C39.3474 60.6113 39.8274 60.5325 40.3057 60.5325C41.0623 60.5325 41.8144 60.7298 42.4845 61.1166C43.5782 61.7481 44.3432 62.8213 44.5838 64.061C44.824 65.3008 44.5155 66.5821 43.7373 67.5765Z" fill="#368EC0"/>
<path d="M47.4979 63.4959C47.0948 61.4172 45.8141 59.6175 43.9834 58.5547C44.3163 58.2828 44.6287 57.9821 44.9137 57.6509C46.3195 56.0176 46.9421 53.8586 46.6213 51.7278C46.1004 48.2656 44.6269 45.0307 42.3601 42.3727C40.6628 40.3826 38.5767 38.7789 36.2419 37.6519C39.0992 34.6039 40.852 30.5085 40.852 26.011C40.8518 18.2278 35.605 11.6469 28.4626 9.61934C29.4355 8.45782 29.9663 7.0067 29.9663 5.47334C29.9664 2.4553 27.511 0 24.4931 0C24.4933 0 24.493 0 24.4931 0C23.2749 0 22.1334 0.39618 21.28 1.11536C20.3369 1.91009 19.8175 3.02709 19.8173 4.26045C19.8173 5.08012 20.4819 5.74483 21.3017 5.74483C22.1214 5.74483 22.7861 5.08027 22.7861 4.26045C22.7861 3.90732 22.9229 3.61297 23.1931 3.38527C23.5119 3.11659 23.9734 2.9686 24.4928 2.9686C25.8739 2.9686 26.9977 4.09198 26.9977 5.47304C26.9977 6.40849 26.6334 7.28784 25.972 7.94927C25.3105 8.61056 24.4314 8.97483 23.4962 8.97483C23.4963 8.97483 23.496 8.97483 23.4962 8.97483C23.4598 8.97483 23.4239 8.97765 23.3883 8.98032C14.1917 9.20832 6.78035 16.7604 6.7802 26.0109C6.7802 30.5084 8.53295 34.6038 11.3902 37.6518C9.0556 38.7787 6.96946 40.3823 5.27223 42.3725C3.00544 45.0306 1.5319 48.2655 1.01088 51.7275C0.690257 53.8585 1.31266 56.0175 2.71851 57.6507C3.00351 57.9819 3.31582 58.2828 3.64877 58.5546C1.81809 59.6174 0.537218 61.4171 0.13421 63.4958C-0.269985 65.5798 0.248656 67.7341 1.55684 69.406L4.73562 73.4679C6.01991 75.1091 7.97082 75.9915 9.94964 75.9915C11.073 75.9915 12.2056 75.7071 13.2301 75.1156C16.0595 73.4821 17.2719 69.9653 16.0504 66.9354L14.1221 62.1515C13.9932 61.8319 13.8409 61.5254 13.671 61.2309H24.5583C25.3781 61.2309 26.0426 60.5662 26.0426 59.7465C26.0426 58.9269 25.3781 58.2622 24.5583 58.2622H10.8492V55.133C10.8492 54.7299 11.1769 54.4022 11.5799 54.4022H36.0524C36.4552 54.4022 36.7831 54.7299 36.7831 55.133V58.4675C35.3103 59.2748 34.1476 60.5698 33.5099 62.1515L31.5816 66.9352C30.3601 69.9653 31.5725 73.4821 34.4019 75.1156C35.4266 75.7071 36.5587 75.9915 37.6824 75.9915C39.661 75.9915 41.6123 75.1089 42.8965 73.4679L46.0752 69.406C47.3837 67.7341 47.9021 65.58 47.4979 63.4959ZM9.74881 26.011C9.74895 18.2544 16.0596 11.9439 23.8161 11.9437C31.5725 11.9439 37.8832 18.2544 37.8834 26.011C37.8834 33.7676 31.5728 40.0781 23.8161 40.0783C16.0595 40.0781 9.74881 33.7676 9.74881 26.011ZM11.369 63.2615L13.2974 68.0455C13.969 69.712 13.302 71.6463 11.7459 72.5448C10.19 73.4433 8.18116 73.054 7.07366 71.6386L3.89487 67.5766C3.11662 66.5822 2.80816 65.3009 3.04863 64.0612C3.2891 62.8214 4.0543 61.7482 5.14798 61.1168C6.24152 60.4853 7.55356 60.3596 8.74745 60.7709C9.94133 61.1825 10.8968 62.0905 11.369 63.2615ZM36.0622 48.4648C35.2424 48.4648 34.5778 49.1295 34.5778 49.9492V51.4336H13.0642V49.9492C13.0642 49.1295 12.3996 48.4648 11.5798 48.4648C10.76 48.4648 10.0954 49.1295 10.0954 49.9492V51.7455C8.79257 52.3186 7.88027 53.621 7.88027 55.1331V57.2292C6.75616 57.1168 5.71309 56.5792 4.96837 55.7141C4.12718 54.7366 3.75475 53.4446 3.94653 52.1694C4.79634 46.5209 8.56249 41.8539 13.8497 39.8185C16.654 41.8482 20.0974 43.0469 23.8161 43.0469C27.5347 43.0469 30.9782 41.8482 33.7825 39.8185C39.0697 41.8539 42.8358 46.5209 43.6856 52.1694C43.8774 53.4446 43.505 54.7366 42.6636 55.7141C41.9191 56.5792 40.8759 57.1168 39.7517 57.2292V55.1331C39.7517 53.6248 38.844 52.3253 37.5466 51.7499V49.9492C37.5466 49.1295 36.882 48.4648 36.0622 48.4648ZM43.7373 67.5765L40.5586 71.6385C39.4512 73.0535 37.4426 73.443 35.8864 72.5447C34.3302 71.6462 33.6633 69.7119 34.3351 68.0451L36.2635 63.2612C36.7356 62.0901 37.6911 61.1822 38.885 60.7706C39.3474 60.6113 39.8274 60.5325 40.3057 60.5325C41.0623 60.5325 41.8144 60.7298 42.4845 61.1166C43.5782 61.7481 44.3432 62.8213 44.5838 64.061C44.824 65.3008 44.5155 66.5821 43.7373 67.5765Z" fill="url(#paint1_linear)"/>
<path d="M31.5038 58.6966C31.2277 58.4205 30.8447 58.2617 30.4543 58.2617C30.0639 58.2617 29.6809 58.4204 29.4048 58.6966C29.1288 58.9729 28.9699 59.3557 28.9699 59.7461C28.9699 60.138 29.1288 60.5195 29.4048 60.7954C29.6809 61.073 30.0639 61.2305 30.4543 61.2305C30.8447 61.2305 31.2277 61.073 31.5038 60.7954C31.7799 60.5195 31.9387 60.1365 31.9387 59.7461C31.9387 59.3557 31.7799 58.9727 31.5038 58.6966Z" fill="#368EC0"/>
<path d="M31.5038 58.6966C31.2277 58.4205 30.8447 58.2617 30.4543 58.2617C30.0639 58.2617 29.6809 58.4204 29.4048 58.6966C29.1288 58.9729 28.9699 59.3557 28.9699 59.7461C28.9699 60.138 29.1288 60.5195 29.4048 60.7954C29.6809 61.073 30.0639 61.2305 30.4543 61.2305C30.8447 61.2305 31.2277 61.073 31.5038 60.7954C31.7799 60.5195 31.9387 60.1365 31.9387 59.7461C31.9387 59.3557 31.7799 58.9727 31.5038 58.6966Z" fill="url(#paint2_linear)"/>
<path d="M27.9085 31.0802C27.2717 30.5639 26.337 30.662 25.8207 31.2987C25.3275 31.9072 24.5967 32.2562 23.8161 32.2562C23.0355 32.2562 22.3045 31.9071 21.8114 31.2987C21.2953 30.6617 20.3606 30.5642 19.7237 31.0802C19.0867 31.5963 18.9889 32.531 19.5052 33.1679C20.5647 34.4752 22.1361 35.2248 23.8161 35.2248C25.4961 35.2248 27.0676 34.4751 28.127 33.1679C28.6433 32.531 28.5455 31.5963 27.9085 31.0802Z" fill="#368EC0"/>
<path d="M27.9085 31.0802C27.2717 30.5639 26.337 30.662 25.8207 31.2987C25.3275 31.9072 24.5967 32.2562 23.8161 32.2562C23.0355 32.2562 22.3045 31.9071 21.8114 31.2987C21.2953 30.6617 20.3606 30.5642 19.7237 31.0802C19.0867 31.5963 18.9889 32.531 19.5052 33.1679C20.5647 34.4752 22.1361 35.2248 23.8161 35.2248C25.4961 35.2248 27.0676 34.4751 28.127 33.1679C28.6433 32.531 28.5455 31.5963 27.9085 31.0802Z" fill="url(#paint3_linear)"/>
<path d="M20.0653 24.9613C18.7188 23.6148 16.5279 23.6148 15.1811 24.9613C14.6015 25.5409 14.6013 26.4807 15.1811 27.0605C15.7608 27.6403 16.7007 27.6403 17.2803 27.0606C17.4693 26.8717 17.777 26.8717 17.9661 27.0606C18.256 27.3504 18.6359 27.4954 19.0157 27.4954C19.3956 27.4954 19.7756 27.3504 20.0653 27.0606C20.645 26.481 20.645 25.5411 20.0653 24.9613Z" fill="#368EC0"/>
<path d="M20.0653 24.9613C18.7188 23.6148 16.5279 23.6148 15.1811 24.9613C14.6015 25.5409 14.6013 26.4807 15.1811 27.0605C15.7608 27.6403 16.7007 27.6403 17.2803 27.0606C17.4693 26.8717 17.777 26.8717 17.9661 27.0606C18.256 27.3504 18.6359 27.4954 19.0157 27.4954C19.3956 27.4954 19.7756 27.3504 20.0653 27.0606C20.645 26.481 20.645 25.5411 20.0653 24.9613Z" fill="url(#paint4_linear)"/>
<path d="M32.4514 24.9611C31.1047 23.6148 28.9137 23.6148 27.5672 24.9611C26.9875 25.5407 26.9875 26.4806 27.5672 27.0604C27.8569 27.3503 28.2369 27.4952 28.6168 27.4952C28.9966 27.4952 29.3766 27.3502 29.6664 27.0604C29.8554 26.8716 30.1631 26.8713 30.3522 27.0604C30.9318 27.6402 31.8717 27.6401 32.4514 27.0603C33.031 26.4806 33.031 25.5409 32.4514 24.9611Z" fill="#368EC0"/>
<path d="M32.4514 24.9611C31.1047 23.6148 28.9137 23.6148 27.5672 24.9611C26.9875 25.5407 26.9875 26.4806 27.5672 27.0604C27.8569 27.3503 28.2369 27.4952 28.6168 27.4952C28.9966 27.4952 29.3766 27.3502 29.6664 27.0604C29.8554 26.8716 30.1631 26.8713 30.3522 27.0604C30.9318 27.6402 31.8717 27.6401 32.4514 27.0603C33.031 26.4806 33.031 25.5409 32.4514 24.9611Z" fill="url(#paint5_linear)"/>
<defs>
<linearGradient id="paint0_linear" x1="6.89411" y1="7.5" x2="53.0373" y2="44.2783" gradientUnits="userSpaceOnUse">
<stop stop-color="#F9C223"/>
<stop offset="0.583333" stop-color="white" stop-opacity="0"/>
</linearGradient>
<linearGradient id="paint1_linear" x1="6.89411" y1="7.5" x2="53.0373" y2="44.2783" gradientUnits="userSpaceOnUse">
<stop stop-color="#F9C223"/>
<stop offset="0.583333" stop-color="white" stop-opacity="0"/>
</linearGradient>
<linearGradient id="paint2_linear" x1="6.89411" y1="7.5" x2="53.0373" y2="44.2783" gradientUnits="userSpaceOnUse">
<stop stop-color="#F9C223"/>
<stop offset="0.583333" stop-color="white" stop-opacity="0"/>
</linearGradient>
<linearGradient id="paint3_linear" x1="6.89411" y1="7.5" x2="53.0373" y2="44.2783" gradientUnits="userSpaceOnUse">
<stop stop-color="#F9C223"/>
<stop offset="0.583333" stop-color="white" stop-opacity="0"/>
</linearGradient>
<linearGradient id="paint4_linear" x1="6.89411" y1="7.5" x2="53.0373" y2="44.2783" gradientUnits="userSpaceOnUse">
<stop stop-color="#F9C223"/>
<stop offset="0.583333" stop-color="white" stop-opacity="0"/>
</linearGradient>
<linearGradient id="paint5_linear" x1="6.89411" y1="7.5" x2="53.0373" y2="44.2783" gradientUnits="userSpaceOnUse">
<stop stop-color="#F9C223"/>
<stop offset="0.583333" stop-color="white" stop-opacity="0"/>
</linearGradient>
</defs>
</svg>
