<svg width="76" height="76" viewBox="0 0 76 76" fill="none" xmlns="http://www.w3.org/2000/svg">
<path d="M64.8702 11.13C57.6928 3.95279 48.1503 0 37.9999 0C27.8499 0 18.3072 3.95279 11.13 11.13C3.9528 18.3071 0 27.8498 0 38C0 48.1502 3.95264 57.6927 11.13 64.87C18.3074 72.0474 27.8499 76 38.0001 76C48.1503 76 57.693 72.0474 64.8702 64.87C72.0474 57.6929 76.0002 48.1502 76.0002 38C76.0002 27.8498 72.0474 18.3071 64.8702 11.13ZM37.9999 72.9669C18.7192 72.9669 3.03297 57.2807 3.03297 38C3.03297 18.7193 18.7192 3.03296 37.9999 3.03296C57.2809 3.03296 72.967 18.7191 72.967 37.9998C72.967 57.2806 57.281 72.9669 37.9999 72.9669Z" fill="#368EC0"/>
<path d="M64.8702 11.13C57.6928 3.95279 48.1503 0 37.9999 0C27.8499 0 18.3072 3.95279 11.13 11.13C3.9528 18.3071 0 27.8498 0 38C0 48.1502 3.95264 57.6927 11.13 64.87C18.3074 72.0474 27.8499 76 38.0001 76C48.1503 76 57.693 72.0474 64.8702 64.87C72.0474 57.6929 76.0002 48.1502 76.0002 38C76.0002 27.8498 72.0474 18.3071 64.8702 11.13ZM37.9999 72.9669C18.7192 72.9669 3.03297 57.2807 3.03297 38C3.03297 18.7193 18.7192 3.03296 37.9999 3.03296C57.2809 3.03296 72.967 18.7191 72.967 37.9998C72.967 57.2806 57.281 72.9669 37.9999 72.9669Z" fill="url(#paint0_linear)"/>
<path d="M37.9999 6.42493C20.5892 6.42493 6.42469 20.5894 6.42469 38.0001C6.42469 55.4108 20.5892 69.5754 37.9999 69.5754C55.4107 69.5754 69.5754 55.4108 69.5754 38.0001C69.5754 20.5894 55.4107 6.42493 37.9999 6.42493ZM41.7596 60.5417H34.2377C31.3951 51.0498 24.1976 43.3821 14.8899 39.9596L17.4895 28.9246C24.1652 27.3001 31.0603 26.4745 38.0004 26.4745C44.9429 26.4745 51.8374 27.3005 58.5107 28.9263L61.1098 39.9585C51.801 43.3802 44.6024 51.0484 41.7596 60.5417ZM9.45766 38.0001C9.45766 35.5853 9.76028 33.24 10.3276 30.999C11.5966 30.5709 12.8797 30.1713 14.1667 29.8028L11.9878 39.0515C11.1597 38.8355 10.3182 38.6513 9.46406 38.502C9.4612 38.3349 9.45766 38.1679 9.45766 38.0001ZM64.0122 39.051L61.8337 29.8037C63.1219 30.1722 64.405 30.5717 65.6728 31C66.2398 33.2407 66.5424 35.5857 66.5424 38.0001C66.5424 38.1677 66.5388 38.3347 66.536 38.5017C65.6819 38.651 64.8404 38.835 64.0122 39.051ZM37.9999 9.45789C50.0088 9.45789 60.3083 16.9132 64.5157 27.4381C63.0669 26.9893 61.6064 26.5768 60.1487 26.2068C52.9562 24.3721 45.5045 23.4419 38.0004 23.4419C30.4994 23.4419 23.0472 24.3716 15.8513 26.2049C14.3945 26.5756 12.9341 26.9886 11.4844 27.4378C15.6919 16.9129 25.9912 9.45789 37.9999 9.45789ZM9.68732 41.6294C21.6263 44.046 30.7614 53.8797 32.299 65.9699C20.4436 63.5572 11.2351 53.7729 9.68732 41.6294ZM35.4019 66.4228C35.3055 65.4607 35.1665 64.5106 34.9853 63.5747H41.0124C40.831 64.5106 40.6922 65.4609 40.5958 66.4232C39.7405 66.5007 38.8753 66.5425 38.0001 66.5425C37.1241 66.5423 36.2578 66.5005 35.4019 66.4228ZM43.6986 65.9704C45.2361 53.878 54.3724 44.0439 66.3129 41.6289C64.7651 53.7735 55.5553 63.5584 43.6986 65.9704Z" fill="#368EC0"/>
<path d="M37.9999 6.42493C20.5892 6.42493 6.42469 20.5894 6.42469 38.0001C6.42469 55.4108 20.5892 69.5754 37.9999 69.5754C55.4107 69.5754 69.5754 55.4108 69.5754 38.0001C69.5754 20.5894 55.4107 6.42493 37.9999 6.42493ZM41.7596 60.5417H34.2377C31.3951 51.0498 24.1976 43.3821 14.8899 39.9596L17.4895 28.9246C24.1652 27.3001 31.0603 26.4745 38.0004 26.4745C44.9429 26.4745 51.8374 27.3005 58.5107 28.9263L61.1098 39.9585C51.801 43.3802 44.6024 51.0484 41.7596 60.5417ZM9.45766 38.0001C9.45766 35.5853 9.76028 33.24 10.3276 30.999C11.5966 30.5709 12.8797 30.1713 14.1667 29.8028L11.9878 39.0515C11.1597 38.8355 10.3182 38.6513 9.46406 38.502C9.4612 38.3349 9.45766 38.1679 9.45766 38.0001ZM64.0122 39.051L61.8337 29.8037C63.1219 30.1722 64.405 30.5717 65.6728 31C66.2398 33.2407 66.5424 35.5857 66.5424 38.0001C66.5424 38.1677 66.5388 38.3347 66.536 38.5017C65.6819 38.651 64.8404 38.835 64.0122 39.051ZM37.9999 9.45789C50.0088 9.45789 60.3083 16.9132 64.5157 27.4381C63.0669 26.9893 61.6064 26.5768 60.1487 26.2068C52.9562 24.3721 45.5045 23.4419 38.0004 23.4419C30.4994 23.4419 23.0472 24.3716 15.8513 26.2049C14.3945 26.5756 12.9341 26.9886 11.4844 27.4378C15.6919 16.9129 25.9912 9.45789 37.9999 9.45789ZM9.68732 41.6294C21.6263 44.046 30.7614 53.8797 32.299 65.9699C20.4436 63.5572 11.2351 53.7729 9.68732 41.6294ZM35.4019 66.4228C35.3055 65.4607 35.1665 64.5106 34.9853 63.5747H41.0124C40.831 64.5106 40.6922 65.4609 40.5958 66.4232C39.7405 66.5007 38.8753 66.5425 38.0001 66.5425C37.1241 66.5423 36.2578 66.5005 35.4019 66.4228ZM43.6986 65.9704C45.2361 53.878 54.3724 44.0439 66.3129 41.6289C64.7651 53.7735 55.5553 63.5584 43.6986 65.9704Z" fill="url(#paint1_linear)"/>
<path d="M38 29.3764C33.2449 29.3764 29.3764 33.245 29.3764 38C29.3764 42.7552 33.2449 46.6237 38 46.6237C42.7551 46.6237 46.6237 42.7552 46.6237 38C46.6237 33.245 42.7551 29.3764 38 29.3764ZM38 43.5906C34.9173 43.5906 32.4093 41.0827 32.4093 37.9998C32.4093 34.9172 34.9173 32.4092 38 32.4092C41.0826 32.4092 43.5907 34.9172 43.5907 37.9998C43.5907 41.0827 41.0828 43.5906 38 43.5906Z" fill="#368EC0"/>
<path d="M38 29.3764C33.2449 29.3764 29.3764 33.245 29.3764 38C29.3764 42.7552 33.2449 46.6237 38 46.6237C42.7551 46.6237 46.6237 42.7552 46.6237 38C46.6237 33.245 42.7551 29.3764 38 29.3764ZM38 43.5906C34.9173 43.5906 32.4093 41.0827 32.4093 37.9998C32.4093 34.9172 34.9173 32.4092 38 32.4092C41.0826 32.4092 43.5907 34.9172 43.5907 37.9998C43.5907 41.0827 41.0828 43.5906 38 43.5906Z" fill="url(#paint2_linear)"/>
<defs>
<linearGradient id="paint0_linear" x1="11" y1="7.49998" x2="56.9999" y2="66" gradientUnits="userSpaceOnUse">
<stop stop-color="#F9C223"/>
<stop offset="0.583333" stop-color="white" stop-opacity="0"/>
</linearGradient>
<linearGradient id="paint1_linear" x1="11" y1="7.49998" x2="56.9999" y2="66" gradientUnits="userSpaceOnUse">
<stop stop-color="#F9C223"/>
<stop offset="0.583333" stop-color="white" stop-opacity="0"/>
</linearGradient>
<linearGradient id="paint2_linear" x1="11" y1="7.49998" x2="56.9999" y2="66" gradientUnits="userSpaceOnUse">
<stop stop-color="#F9C223"/>
<stop offset="0.583333" stop-color="white" stop-opacity="0"/>
</linearGradient>
</defs>
</svg>
