<svg width="76" height="76" viewBox="0 0 76 76" fill="none" xmlns="http://www.w3.org/2000/svg">
<path d="M26.125 35.0312H49.875C50.6943 35.0312 51.3594 34.3668 51.3594 33.5469V23.1562C51.3594 20.7007 49.3613 18.7031 46.9062 18.7031H29.0938C26.6382 18.7031 24.6406 20.7007 24.6406 23.1562V33.5469C24.6406 34.3668 25.3051 35.0312 26.125 35.0312ZM27.6094 23.1562C27.6094 22.3375 28.275 21.6719 29.0938 21.6719H46.9062C47.7244 21.6719 48.3906 22.3375 48.3906 23.1562V32.0625H27.6094V23.1562Z" fill="#368EC0"/>
<path d="M26.125 35.0312H49.875C50.6943 35.0312 51.3594 34.3668 51.3594 33.5469V23.1562C51.3594 20.7007 49.3613 18.7031 46.9062 18.7031H29.0938C26.6382 18.7031 24.6406 20.7007 24.6406 23.1562V33.5469C24.6406 34.3668 25.3051 35.0312 26.125 35.0312ZM27.6094 23.1562C27.6094 22.3375 28.275 21.6719 29.0938 21.6719H46.9062C47.7244 21.6719 48.3906 22.3375 48.3906 23.1562V32.0625H27.6094V23.1562Z" fill="url(#paint0_linear)"/>
<path d="M46.9062 39.4844C44.4507 39.4844 42.4531 41.4819 42.4531 43.9375C42.4531 46.3925 44.4507 48.3906 46.9062 48.3906C49.3613 48.3906 51.3594 46.3925 51.3594 43.9375C51.3594 41.4819 49.3613 39.4844 46.9062 39.4844ZM46.9062 45.4219C46.0875 45.4219 45.4219 44.7556 45.4219 43.9375C45.4219 43.1188 46.0875 42.4531 46.9062 42.4531C47.7244 42.4531 48.3906 43.1188 48.3906 43.9375C48.3906 44.7556 47.7244 45.4219 46.9062 45.4219Z" fill="#368EC0"/>
<path d="M46.9062 39.4844C44.4507 39.4844 42.4531 41.4819 42.4531 43.9375C42.4531 46.3925 44.4507 48.3906 46.9062 48.3906C49.3613 48.3906 51.3594 46.3925 51.3594 43.9375C51.3594 41.4819 49.3613 39.4844 46.9062 39.4844ZM46.9062 45.4219C46.0875 45.4219 45.4219 44.7556 45.4219 43.9375C45.4219 43.1188 46.0875 42.4531 46.9062 42.4531C47.7244 42.4531 48.3906 43.1188 48.3906 43.9375C48.3906 44.7556 47.7244 45.4219 46.9062 45.4219Z" fill="url(#paint1_linear)"/>
<path d="M29.0938 39.4844C26.6382 39.4844 24.6406 41.4819 24.6406 43.9375C24.6406 46.3925 26.6382 48.3906 29.0938 48.3906C31.5493 48.3906 33.5469 46.3925 33.5469 43.9375C33.5469 41.4819 31.5493 39.4844 29.0938 39.4844ZM29.0938 45.4219C28.275 45.4219 27.6094 44.7556 27.6094 43.9375C27.6094 43.1188 28.275 42.4531 29.0938 42.4531C29.9119 42.4531 30.5781 43.1188 30.5781 43.9375C30.5781 44.7556 29.9119 45.4219 29.0938 45.4219Z" fill="#368EC0"/>
<path d="M29.0938 39.4844C26.6382 39.4844 24.6406 41.4819 24.6406 43.9375C24.6406 46.3925 26.6382 48.3906 29.0938 48.3906C31.5493 48.3906 33.5469 46.3925 33.5469 43.9375C33.5469 41.4819 31.5493 39.4844 29.0938 39.4844ZM29.0938 45.4219C28.275 45.4219 27.6094 44.7556 27.6094 43.9375C27.6094 43.1188 28.275 42.4531 29.0938 42.4531C29.9119 42.4531 30.5781 43.1188 30.5781 43.9375C30.5781 44.7556 29.9119 45.4219 29.0938 45.4219Z" fill="url(#paint2_linear)"/>
<path d="M39.4844 70.0625C39.4844 70.8818 38.8199 71.5469 38 71.5469C37.1801 71.5469 36.5156 70.8818 36.5156 70.0625C36.5156 69.2426 37.1801 68.5781 38 68.5781C38.8199 68.5781 39.4844 69.2426 39.4844 70.0625Z" fill="#368EC0"/>
<path d="M39.4844 70.0625C39.4844 70.8818 38.8199 71.5469 38 71.5469C37.1801 71.5469 36.5156 70.8818 36.5156 70.0625C36.5156 69.2426 37.1801 68.5781 38 68.5781C38.8199 68.5781 39.4844 69.2426 39.4844 70.0625Z" fill="url(#paint3_linear)"/>
<path d="M38 0C16.999 0 0 16.9949 0 38C0 51.3826 7.05542 63.7661 18.495 70.6186L16.8708 73.8488C16.5027 74.5811 16.7978 75.4729 17.5301 75.8417C18.2636 76.2105 19.1554 75.913 19.523 75.1819L21.3512 71.5469H31.3795C32.1993 71.5469 32.8638 70.8818 32.8638 70.0625C32.8638 69.2426 32.1993 68.5781 31.3795 68.5781H22.8437L26.0531 62.1953H49.9399L53.1435 68.5781H44.6205C43.8007 68.5781 43.1362 69.2426 43.1362 70.0625C43.1362 70.8818 43.8007 71.5469 44.6205 71.5469H54.6337L56.4584 75.1813C56.8278 75.9165 57.7207 76.2087 58.4513 75.8417C59.1837 75.4741 59.4794 74.5817 59.1112 73.8494L57.4929 70.6255C68.9399 63.7736 76 51.3872 76 38C76 16.999 59.0056 0 38 0ZM27.5462 59.2266L30.0087 54.3281H45.9907L48.4492 59.2266H27.5462ZM24.6406 51.3594C23.0038 51.3594 21.6719 50.0275 21.6719 48.3906V24.6406C21.6719 18.0926 26.9988 12.7656 33.5469 12.7656H42.4531C49.0006 12.7656 54.3281 18.0926 54.3281 24.6406V48.3906C54.3281 50.0275 52.9962 51.3594 51.3594 51.3594H24.6406ZM56.1575 67.9641L53.2612 62.1953H55.8125C56.6318 62.1953 57.2969 61.5302 57.2969 60.7109C57.2969 59.8911 56.6318 59.2266 55.8125 59.2266H51.7711L49.312 54.3281H51.3588C54.6331 54.3281 57.2963 51.6644 57.2963 48.3906V24.6406C57.2963 16.4557 50.6381 9.79688 42.4525 9.79688H33.5469C25.3619 9.79688 18.7031 16.4557 18.7031 24.6406V48.3906C18.7031 51.6644 21.3663 54.3281 24.6406 54.3281H26.6857L24.2226 59.2266H20.1875C19.3676 59.2266 18.7031 59.8911 18.7031 60.7109C18.7031 61.5302 19.3676 62.1953 20.1875 62.1953H22.7301L19.8326 67.9583C9.39563 61.6172 2.96875 50.2635 2.96875 38C2.96875 18.6393 18.6359 2.96875 38 2.96875C57.3601 2.96875 73.0312 18.6359 73.0312 38C73.0312 50.2681 66.5986 61.6259 56.1575 67.9641Z" fill="#368EC0"/>
<path d="M38 0C16.999 0 0 16.9949 0 38C0 51.3826 7.05542 63.7661 18.495 70.6186L16.8708 73.8488C16.5027 74.5811 16.7978 75.4729 17.5301 75.8417C18.2636 76.2105 19.1554 75.913 19.523 75.1819L21.3512 71.5469H31.3795C32.1993 71.5469 32.8638 70.8818 32.8638 70.0625C32.8638 69.2426 32.1993 68.5781 31.3795 68.5781H22.8437L26.0531 62.1953H49.9399L53.1435 68.5781H44.6205C43.8007 68.5781 43.1362 69.2426 43.1362 70.0625C43.1362 70.8818 43.8007 71.5469 44.6205 71.5469H54.6337L56.4584 75.1813C56.8278 75.9165 57.7207 76.2087 58.4513 75.8417C59.1837 75.4741 59.4794 74.5817 59.1112 73.8494L57.4929 70.6255C68.9399 63.7736 76 51.3872 76 38C76 16.999 59.0056 0 38 0ZM27.5462 59.2266L30.0087 54.3281H45.9907L48.4492 59.2266H27.5462ZM24.6406 51.3594C23.0038 51.3594 21.6719 50.0275 21.6719 48.3906V24.6406C21.6719 18.0926 26.9988 12.7656 33.5469 12.7656H42.4531C49.0006 12.7656 54.3281 18.0926 54.3281 24.6406V48.3906C54.3281 50.0275 52.9962 51.3594 51.3594 51.3594H24.6406ZM56.1575 67.9641L53.2612 62.1953H55.8125C56.6318 62.1953 57.2969 61.5302 57.2969 60.7109C57.2969 59.8911 56.6318 59.2266 55.8125 59.2266H51.7711L49.312 54.3281H51.3588C54.6331 54.3281 57.2963 51.6644 57.2963 48.3906V24.6406C57.2963 16.4557 50.6381 9.79688 42.4525 9.79688H33.5469C25.3619 9.79688 18.7031 16.4557 18.7031 24.6406V48.3906C18.7031 51.6644 21.3663 54.3281 24.6406 54.3281H26.6857L24.2226 59.2266H20.1875C19.3676 59.2266 18.7031 59.8911 18.7031 60.7109C18.7031 61.5302 19.3676 62.1953 20.1875 62.1953H22.7301L19.8326 67.9583C9.39563 61.6172 2.96875 50.2635 2.96875 38C2.96875 18.6393 18.6359 2.96875 38 2.96875C57.3601 2.96875 73.0312 18.6359 73.0312 38C73.0312 50.2681 66.5986 61.6259 56.1575 67.9641Z" fill="url(#paint4_linear)"/>
<defs>
<linearGradient id="paint0_linear" x1="11" y1="7.5" x2="57" y2="65.9999" gradientUnits="userSpaceOnUse">
<stop stop-color="#F9C223"/>
<stop offset="0.583333" stop-color="white" stop-opacity="0"/>
</linearGradient>
<linearGradient id="paint1_linear" x1="11" y1="7.5" x2="57" y2="65.9999" gradientUnits="userSpaceOnUse">
<stop stop-color="#F9C223"/>
<stop offset="0.583333" stop-color="white" stop-opacity="0"/>
</linearGradient>
<linearGradient id="paint2_linear" x1="11" y1="7.5" x2="57" y2="65.9999" gradientUnits="userSpaceOnUse">
<stop stop-color="#F9C223"/>
<stop offset="0.583333" stop-color="white" stop-opacity="0"/>
</linearGradient>
<linearGradient id="paint3_linear" x1="11" y1="7.5" x2="57" y2="65.9999" gradientUnits="userSpaceOnUse">
<stop stop-color="#F9C223"/>
<stop offset="0.583333" stop-color="white" stop-opacity="0"/>
</linearGradient>
<linearGradient id="paint4_linear" x1="11" y1="7.5" x2="57" y2="65.9999" gradientUnits="userSpaceOnUse">
<stop stop-color="#F9C223"/>
<stop offset="0.583333" stop-color="white" stop-opacity="0"/>
</linearGradient>
</defs>
</svg>
