<?xml version="1.0" encoding="UTF-8"?> <svg xmlns="http://www.w3.org/2000/svg" width="40" height="40" viewBox="0 0 40 40" fill="none"> <g clip-path="url(#clip0)"> <path d="M39.4858 2.72098C39.3852 2.60153 39.2412 2.52692 39.0856 2.51364L30.3803 1.77013L30.2225 0.515594C30.1818 0.19286 29.8866 -0.0358905 29.5646 0.00465642L21.4891 1.01997C21.4573 1.01169 21.4247 1.00544 21.3908 1.00255L10.2911 0.054422C9.97152 0.026297 9.68137 0.272078 9.65418 0.591063L9.48871 2.52856L0.89113 3.6095C0.573005 3.6495 0.340271 3.94895 0.380193 4.26731L4.76879 39.1742C4.78871 39.3334 4.75457 39.4864 4.81965 39.6404C4.9109 39.8561 5.12808 40 5.36238 40H34.2615C34.5869 40 34.8505 39.7365 34.8505 39.4111V38.644L35.9912 38.7414C36.3108 38.7691 36.601 38.5239 36.6282 38.2047L39.6221 3.15075C39.6355 2.99505 39.5865 2.84052 39.4858 2.72098ZM4.7734 29.7674L1.62254 4.70473L4.7734 4.30864V29.7674ZM10.7778 1.27825L15.9325 1.71848L10.6839 2.37841L10.7778 1.27825ZM29.1272 1.24692L29.4282 3.64044H10.0882L29.1272 1.24692ZM35.5046 37.5175L34.8505 37.4617V20.2496C34.8505 19.9243 34.5869 19.6606 34.2615 19.6606C33.9361 19.6606 33.6725 19.9242 33.6725 20.2496V38.822H5.95136V4.81841H33.6726V17.5011C33.6726 17.8265 33.9362 18.09 34.2616 18.09C34.587 18.09 34.8506 17.8265 34.8506 17.5011V4.22942C34.8506 3.90411 34.587 3.64044 34.2616 3.64044H30.6154L30.5305 2.9652L38.3984 3.63723L35.5046 37.5175Z" fill="#08AFF6"></path> <path d="M31.1204 6.78174H27.9791C27.7821 6.78174 27.5982 6.8801 27.4891 7.044L26.156 9.04369C24.7211 8.0158 22.9643 7.40994 21.0685 7.40994C20.7432 7.40994 20.4795 7.67354 20.4795 7.99893V16.1661C20.4795 16.4914 20.7431 16.7551 21.0685 16.7551H29.2357C29.5611 16.7551 29.8246 16.4915 29.8246 16.1661C29.8246 13.6585 28.7648 11.3942 27.07 9.79635L28.2944 7.95971H31.1204C31.4457 7.95971 31.7094 7.69611 31.7094 7.37072C31.7094 7.04533 31.4457 6.78174 31.1204 6.78174ZM28.624 15.5771H21.6575V8.61057C23.0858 8.72088 24.4036 9.23025 25.5017 10.0252L24.9761 10.8135C24.812 11.0596 24.8601 11.4005 25.0868 11.5909C25.3523 11.8138 25.7641 11.755 25.9562 11.467L26.406 10.7923C27.6582 12.0362 28.48 13.7131 28.624 15.5771Z" fill="#08AFF6"></path> <path d="M31.1203 26.2573H25.7926L24.8538 24.7553C26.3745 23.1795 27.3115 21.0367 27.3115 18.6791C27.3115 18.3538 27.0479 18.0902 26.7226 18.0902H19.1444V10.512C19.1444 10.1866 18.8807 9.92297 18.5554 9.92297C13.7272 9.92297 9.79919 13.851 9.79919 18.6791C9.79919 23.5073 13.7272 27.4353 18.5554 27.4353C20.5962 27.4353 22.4761 26.7334 23.9666 25.5585L24.9666 27.1585C25.0743 27.3307 25.263 27.4353 25.4661 27.4353H31.1203C31.4456 27.4353 31.7093 27.1717 31.7093 26.8463C31.7093 26.5209 31.4456 26.2573 31.1203 26.2573ZM22.8244 21.5082C22.6521 21.2322 22.2886 21.1484 22.0128 21.3209C21.7369 21.4932 21.653 21.8566 21.8254 22.1325L23.3383 24.553C22.0329 25.6179 20.3675 26.2574 18.5554 26.2574C14.3769 26.2574 10.9772 22.8578 10.9772 18.6792C10.9772 14.6988 14.062 11.4252 17.9665 11.1237V18.6792C17.9665 19.0045 18.2301 19.2682 18.5554 19.2682H26.111C25.9794 20.9714 25.2822 22.5185 24.2077 23.7216L22.8244 21.5082Z" fill="#08AFF6"></path> <path d="M13.5295 29.3984H8.50354C8.1783 29.3984 7.91455 29.662 7.91455 29.9874C7.91455 30.3128 8.17822 30.5764 8.50354 30.5764H13.5295C13.8548 30.5764 14.1185 30.3128 14.1185 29.9874C14.1185 29.662 13.8548 29.3984 13.5295 29.3984Z" fill="#08AFF6"></path> <path d="M21.0685 29.3984H16.0426C15.7173 29.3984 15.4536 29.662 15.4536 29.9874C15.4536 30.3128 15.7173 30.5764 16.0426 30.5764H21.0685C21.3939 30.5764 21.6575 30.3128 21.6575 29.9874C21.6575 29.662 21.3939 29.3984 21.0685 29.3984Z" fill="#08AFF6"></path> <path d="M16.6707 32.5397H8.50354C8.1783 32.5397 7.91455 32.8033 7.91455 33.1287C7.91455 33.454 8.17822 33.7176 8.50354 33.7176H16.6707C16.996 33.7176 17.2597 33.454 17.2597 33.1287C17.2597 32.8033 16.996 32.5397 16.6707 32.5397Z" fill="#08AFF6"></path> <path d="M21.0685 32.5397H19.1837C18.8585 32.5397 18.5947 32.8033 18.5947 33.1287C18.5947 33.454 18.8584 33.7176 19.1837 33.7176H21.0685C21.3938 33.7176 21.6575 33.454 21.6575 33.1287C21.6574 32.8033 21.3938 32.5397 21.0685 32.5397Z" fill="#08AFF6"></path> <path d="M11.0165 35.6809H8.50354C8.1783 35.6809 7.91455 35.9445 7.91455 36.2699C7.91455 36.5953 8.17822 36.8589 8.50354 36.8589H11.0165C11.3418 36.8589 11.6055 36.5953 11.6055 36.2699C11.6055 35.9445 11.3418 35.6809 11.0165 35.6809Z" fill="#08AFF6"></path> <path d="M21.0684 35.6809H13.5295C13.2043 35.6809 12.9406 35.9445 12.9406 36.2699C12.9406 36.5953 13.2042 36.8589 13.5295 36.8589H21.0684C21.3938 36.8589 21.6574 36.5953 21.6574 36.2699C21.6574 35.9445 21.3938 35.6809 21.0684 35.6809Z" fill="#08AFF6"></path> </g> <defs> <clipPath id="clip0"> <rect width="40" height="40" fill="white"></rect> </clipPath> </defs> </svg> 