<?xml version="1.0" encoding="UTF-8"?> <svg xmlns="http://www.w3.org/2000/svg" width="26" height="20" viewBox="0 0 26 20" fill="none"> <path d="M23.0631 17.6991C21.1052 19.233 19.4352 20 18.0532 20C16.7287 20 15.6058 19.4395 14.6844 18.3186C13.8206 17.1386 13.3887 15.6047 13.3887 13.7168C13.3887 10.826 14.4828 8.23009 16.6711 5.92921C18.8594 3.56932 21.4507 1.59292 24.4452 0L26 1.32744V2.21239C24.2148 3.33334 22.7176 4.71977 21.5083 6.37168C20.3566 7.9646 19.7807 9.49853 19.7807 10.9735C19.7807 12.0944 20.0975 13.1563 20.7309 14.1593C21.3643 15.1032 22.1993 15.8702 23.2359 16.4602L23.0631 17.6991ZM9.67442 17.6991C7.7165 19.233 6.04651 20 4.66445 20C3.33998 20 2.21705 19.4395 1.29568 18.3186C0.431894 17.1386 0 15.6047 0 13.7168C0 10.826 1.09413 8.23009 3.28239 5.92921C5.47065 3.56932 8.06202 1.59292 11.0565 0L12.6113 1.32744V2.21239C10.8261 3.33334 9.3289 4.71977 8.1196 6.37168C6.96789 7.9646 6.39203 9.49853 6.39203 10.9735C6.39203 12.0944 6.70875 13.1563 7.34219 14.1593C7.97564 15.1032 8.81063 15.8702 9.84718 16.4602L9.67442 17.6991Z" fill="#08AFF6"></path> </svg> 