<?xml version="1.0" encoding="UTF-8"?> <svg xmlns="http://www.w3.org/2000/svg" width="30" height="30" viewBox="0 0 30 30" fill="none"> <path d="M15 0C6.72867 0 0 6.72867 0 15C0 23.2713 6.72867 30 15 30C23.2713 30 30 23.2713 30 15C30 6.72867 23.2713 0 15 0Z" fill="#08AFF6"></path> <path d="M22.6026 11.8213L14.4775 19.9461C14.2338 20.1899 13.9138 20.3126 13.5938 20.3126C13.2738 20.3126 12.9539 20.1899 12.7101 19.9461L8.64767 15.8837C8.15878 15.3951 8.15878 14.6049 8.64767 14.1163C9.13634 13.6274 9.92621 13.6274 10.4151 14.1163L13.5938 17.295L20.8352 10.0539C21.3238 9.56497 22.1137 9.56497 22.6026 10.0539C23.0913 10.5425 23.0913 11.3324 22.6026 11.8213Z" fill="#FAFAFA"></path> </svg> 