<?xml version="1.0" encoding="UTF-8"?> <svg xmlns="http://www.w3.org/2000/svg" width="250" height="24" viewBox="0 0 250 24" fill="none"> <path d="M7.71954 4.94671V10.5498H17.5976V14.487H7.71954V22.2101H2.78052V1.00944H18.9086V4.94671H7.71954ZM32.3792 22.5736C30.1638 22.5736 28.1617 22.0991 26.3731 21.1501C24.6048 20.2011 23.2125 18.8988 22.1963 17.2431C21.2003 15.5673 20.7024 13.6895 20.7024 11.6098C20.7024 9.5301 21.2003 7.66242 22.1963 6.00674C23.2125 4.33088 24.6048 3.01846 26.3731 2.06947C28.1617 1.12049 30.1638 0.645996 32.3792 0.645996C34.5947 0.645996 36.5865 1.12049 38.3548 2.06947C40.1231 3.01846 41.5154 4.33088 42.5316 6.00674C43.5479 7.66242 44.056 9.5301 44.056 11.6098C44.056 13.6895 43.5479 15.5673 42.5316 17.2431C41.5154 18.8988 40.1231 20.2011 38.3548 21.1501C36.5865 22.0991 34.5947 22.5736 32.3792 22.5736ZM32.3792 18.394C33.6394 18.394 34.7776 18.1113 35.7938 17.546C36.8101 16.9604 37.6028 16.1528 38.1719 15.123C38.7613 14.0933 39.056 12.9222 39.056 11.6098C39.056 10.2974 38.7613 9.12628 38.1719 8.09653C37.6028 7.06678 36.8101 6.26923 35.7938 5.70388C34.7776 5.11833 33.6394 4.82556 32.3792 4.82556C31.119 4.82556 29.9808 5.11833 28.9646 5.70388C27.9483 6.26923 27.1455 7.06678 26.556 8.09653C25.9869 9.12628 25.7024 10.2974 25.7024 11.6098C25.7024 12.9222 25.9869 14.0933 26.556 15.123C27.1455 16.1528 27.9483 16.9604 28.9646 17.546C29.9808 18.1113 31.119 18.394 32.3792 18.394ZM57.9813 22.5736C55.8065 22.5736 53.835 22.1092 52.0667 21.1804C50.3187 20.2314 48.9366 18.9291 47.9204 17.2734C46.9244 15.5975 46.4265 13.7097 46.4265 11.6098C46.4265 9.50991 46.9244 7.63213 47.9204 5.97646C48.9366 4.30059 50.3187 2.99826 52.0667 2.06947C53.835 1.12049 55.8167 0.645996 58.0118 0.645996C59.8614 0.645996 61.5281 0.969054 63.0118 1.61517C64.5159 2.26129 65.7761 3.19008 66.7923 4.40155L63.6216 7.30907C62.1785 5.6534 60.3899 4.82556 58.2557 4.82556C56.9346 4.82556 55.7557 5.11833 54.7192 5.70388C53.6826 6.26923 52.8696 7.06678 52.2801 8.09653C51.711 9.12628 51.4265 10.2974 51.4265 11.6098C51.4265 12.9222 51.711 14.0933 52.2801 15.123C52.8696 16.1528 53.6826 16.9604 54.7192 17.546C55.7557 18.1113 56.9346 18.394 58.2557 18.394C60.3899 18.394 62.1785 17.5561 63.6216 15.8802L66.7923 18.7877C65.7761 20.0194 64.5159 20.9583 63.0118 21.6044C61.5078 22.2505 59.8309 22.5736 57.9813 22.5736ZM79.4306 22.5736C76.3819 22.5736 74.0038 21.7356 72.2965 20.0598C70.6095 18.3839 69.766 15.9913 69.766 12.8818V1.00944H74.705V12.7001C74.705 16.496 76.2904 18.394 79.4611 18.394C81.0058 18.394 82.1847 17.9397 82.9977 17.0311C83.8107 16.1023 84.2172 14.6587 84.2172 12.7001V1.00944H89.0953V12.8818C89.0953 15.9913 88.2416 18.3839 86.5343 20.0598C84.8473 21.7356 82.4794 22.5736 79.4306 22.5736ZM100.988 22.5736C99.3012 22.5736 97.665 22.3515 96.0796 21.9073C94.5146 21.4429 93.2544 20.8472 92.2991 20.1204L93.976 16.4254C94.8906 17.0917 95.978 17.6268 97.2382 18.0306C98.4983 18.4344 99.7585 18.6363 101.019 18.6363C102.421 18.6363 103.457 18.4344 104.128 18.0306C104.799 17.6066 105.134 17.0513 105.134 16.3648C105.134 15.86 104.931 15.4461 104.524 15.123C104.138 14.7798 103.63 14.5072 103 14.3053C102.39 14.1034 101.557 13.8813 100.5 13.639C98.8743 13.2554 97.543 12.8717 96.5065 12.4881C95.4699 12.1045 94.5756 11.4886 93.8235 10.6406C93.0918 9.79258 92.726 8.66188 92.726 7.2485C92.726 6.01684 93.0613 4.90633 93.7321 3.91696C94.4028 2.9074 95.4089 2.10985 96.7504 1.52431C98.1121 0.938767 99.7686 0.645996 101.719 0.645996C103.081 0.645996 104.413 0.807524 105.713 1.13058C107.014 1.45364 108.152 1.91804 109.128 2.52377L107.604 6.24904C105.632 5.13853 103.661 4.58327 101.689 4.58327C100.307 4.58327 99.2808 4.80537 98.6101 5.24958C97.9597 5.69378 97.6345 6.27933 97.6345 7.00621C97.6345 7.73309 98.0105 8.27825 98.7626 8.64169C99.5349 8.98494 100.704 9.32819 102.268 9.67144C103.894 10.0551 105.226 10.4387 106.262 10.8223C107.299 11.206 108.183 11.8117 108.915 12.6395C109.667 13.4674 110.043 14.588 110.043 16.0014C110.043 17.2128 109.697 18.3233 109.006 19.3329C108.335 20.3223 107.319 21.1097 105.957 21.6953C104.595 22.2808 102.939 22.5736 100.988 22.5736ZM144.284 22.2101L140.168 16.3042H139.924H135.625V22.2101H130.686V1.00944H139.924C141.814 1.00944 143.45 1.3224 144.832 1.94832C146.235 2.57425 147.312 3.46266 148.064 4.61356C148.816 5.76445 149.192 7.12735 149.192 8.70226C149.192 10.2772 148.806 11.6401 148.033 12.791C147.281 13.9217 146.204 14.7899 144.802 15.3956L149.588 22.2101H144.284ZM144.192 8.70226C144.192 7.51099 143.806 6.60238 143.033 5.97646C142.261 5.33034 141.133 5.00728 139.649 5.00728H135.625V12.3972H139.649C141.133 12.3972 142.261 12.0742 143.033 11.4281C143.806 10.7819 144.192 9.87335 144.192 8.70226ZM169.63 18.2729V22.2101H153.106V1.00944H169.234V4.94671H158.014V9.55029H167.923V13.3664H158.014V18.2729H169.63ZM180.572 22.5736C178.885 22.5736 177.249 22.3515 175.664 21.9073C174.099 21.4429 172.838 20.8472 171.883 20.1204L173.56 16.4254C174.475 17.0917 175.562 17.6268 176.822 18.0306C178.082 18.4344 179.342 18.6363 180.603 18.6363C182.005 18.6363 183.042 18.4344 183.712 18.0306C184.383 17.6066 184.718 17.0513 184.718 16.3648C184.718 15.86 184.515 15.4461 184.109 15.123C183.723 14.7798 183.214 14.5072 182.584 14.3053C181.975 14.1034 181.141 13.8813 180.084 13.639C178.458 13.2554 177.127 12.8717 176.09 12.4881C175.054 12.1045 174.16 11.4886 173.407 10.6406C172.676 9.79258 172.31 8.66188 172.31 7.2485C172.31 6.01684 172.645 4.90633 173.316 3.91696C173.987 2.9074 174.993 2.10985 176.334 1.52431C177.696 0.938767 179.353 0.645996 181.304 0.645996C182.666 0.645996 183.997 0.807524 185.298 1.13058C186.599 1.45364 187.737 1.91804 188.712 2.52377L187.188 6.24904C185.216 5.13853 183.245 4.58327 181.273 4.58327C179.891 4.58327 178.865 4.80537 178.194 5.24958C177.544 5.69378 177.218 6.27933 177.218 7.00621C177.218 7.73309 177.594 8.27825 178.346 8.64169C179.119 8.98494 180.288 9.32819 181.853 9.67144C183.479 10.0551 184.81 10.4387 185.847 10.8223C186.883 11.206 187.767 11.8117 188.499 12.6395C189.251 13.4674 189.627 14.588 189.627 16.0014C189.627 17.2128 189.281 18.3233 188.59 19.3329C187.92 20.3223 186.903 21.1097 185.542 21.6953C184.18 22.2808 182.523 22.5736 180.572 22.5736ZM202.484 22.5736C199.435 22.5736 197.057 21.7356 195.35 20.0598C193.663 18.3839 192.819 15.9913 192.819 12.8818V1.00944H197.758V12.7001C197.758 16.496 199.343 18.394 202.514 18.394C204.059 18.394 205.238 17.9397 206.051 17.0311C206.864 16.1023 207.27 14.6587 207.27 12.7001V1.00944H212.148V12.8818C212.148 15.9913 211.295 18.3839 209.587 20.0598C207.9 21.7356 205.532 22.5736 202.484 22.5736ZM217.028 1.00944H221.967V18.2123H232.669V22.2101H217.028V1.00944ZM237.855 5.00728H231.025V1.00944H249.623V5.00728H242.794V22.2101H237.855V5.00728Z" fill="#1E1E1E"></path> <path d="M120.427 15.1436C122.391 15.1436 123.984 13.5616 123.984 11.6101C123.984 9.65864 122.391 8.07666 120.427 8.07666C118.462 8.07666 116.87 9.65864 116.87 11.6101C116.87 13.5616 118.462 15.1436 120.427 15.1436Z" fill="#F89732"></path> </svg> 