<?xml version="1.0" encoding="UTF-8"?> <svg xmlns="http://www.w3.org/2000/svg" width="40" height="40" viewBox="0 0 40 40" fill="none"> <g clip-path="url(#clip0)"> <path d="M34.1391 5.86054C26.3252 -1.95355 13.6765 -1.9548 5.86131 5.86054C-1.95286 13.6746 -1.95403 26.3232 5.86131 34.1385C13.6752 41.9526 26.324 41.9537 34.1391 34.1385C41.9533 26.3244 41.9544 13.6758 34.1391 5.86054ZM33.3034 31.2881C32.3692 30.4527 31.3698 29.7134 30.3165 29.0763C31.0127 26.6713 31.4252 24.0248 31.5227 21.2737H37.4014C37.1356 24.9819 35.7108 28.4604 33.3034 31.2881ZM2.59897 21.2737H8.47768C8.57518 24.0248 8.98766 26.6713 9.68389 29.0763C8.63053 29.7134 7.63119 30.4527 6.69695 31.2881C4.28954 28.4604 2.86485 24.9819 2.59897 21.2737ZM6.69703 8.71087C7.63127 9.54628 8.63061 10.2856 9.68397 10.9227C8.98774 13.3277 8.57526 15.9742 8.47776 18.7253H2.59897C2.86485 15.0172 4.28954 11.5387 6.69703 8.71087ZM18.726 11.1861C16.6479 11.0375 14.6441 10.5256 12.7865 9.68125C13.8669 6.89922 15.8585 3.56249 18.726 2.73559V11.1861ZM18.726 13.7393V18.7253H11.0272C11.1155 16.3982 11.4452 14.1635 11.9936 12.1189C14.1046 13.0417 16.3749 13.5928 18.726 13.7393ZM18.726 21.2737V26.2597C16.3749 26.4063 14.1046 26.9574 11.9936 27.8802C11.4452 25.8356 11.1155 23.6009 11.0272 21.2737H18.726ZM18.726 28.813V37.2634C15.8587 36.4365 13.867 33.1002 12.7865 30.3178C14.6441 29.4734 16.6479 28.9616 18.726 28.813ZM21.2744 28.813C23.3526 28.9616 25.3563 29.4734 27.2139 30.3178C26.1335 33.0999 24.1419 36.4365 21.2744 37.2634V28.813ZM21.2744 26.2597V21.2737H28.9732C28.885 23.6009 28.5553 25.8356 28.0069 27.8802C25.8959 26.9574 23.6255 26.4063 21.2744 26.2597ZM21.2744 18.7253V13.7393C23.6255 13.5928 25.8959 13.0417 28.0069 12.1189C28.5553 14.1635 28.885 16.3982 28.9732 18.7253H21.2744ZM21.2744 11.1861V2.73567C24.1419 3.56257 26.1336 6.8993 27.2139 9.68133C25.3563 10.5256 23.3526 11.0375 21.2744 11.1861ZM26.9979 4.00783C28.629 4.72209 30.1507 5.6906 31.5148 6.89227C30.8655 7.46478 30.1804 7.98388 29.4649 8.44811C28.8296 6.87502 28.018 5.34627 26.9979 4.00783ZM10.5355 8.44811C9.82003 7.98388 9.13496 7.46478 8.48557 6.89227C9.84969 5.6906 11.3714 4.72209 13.0025 4.00783C11.9824 5.34643 11.1708 6.87518 10.5355 8.44811ZM10.5355 31.551C11.1708 33.124 11.9826 34.6528 13.0026 35.9913C11.3715 35.277 9.84977 34.3085 8.48565 33.1068C9.13496 32.5343 9.82011 32.0152 10.5355 31.551ZM29.4649 31.551C30.1804 32.0152 30.8655 32.5343 31.5148 33.1067C30.1507 34.3084 28.629 35.2769 26.9979 35.9912C28.0179 34.6529 28.8296 33.1241 29.4649 31.551ZM31.5228 18.7253C31.4253 15.9743 31.0128 13.3277 30.3166 10.9228C31.3699 10.2857 32.3692 9.54636 33.3035 8.71095C35.7109 11.5387 37.1356 15.0172 37.4015 18.7253H31.5228Z" fill="#08AFF6"></path> </g> <defs> <clipPath id="clip0"> <rect width="40" height="40" fill="white"></rect> </clipPath> </defs> </svg> 