<?xml version="1.0" encoding="UTF-8"?> <svg xmlns="http://www.w3.org/2000/svg" width="40" height="40" viewBox="0 0 40 40" fill="none"> <g clip-path="url(#clip0)"> <path d="M32.991 15.2767C32.6858 14.9717 32.1911 14.9717 31.886 15.2767C31.581 15.5819 31.581 16.0766 31.886 16.3816C31.8981 16.3937 31.9106 16.4059 31.9227 16.4172C32.0735 16.5584 32.2652 16.6282 32.4567 16.6282C32.6651 16.6282 32.8732 16.5452 33.027 16.381C33.322 16.0662 33.3058 15.5717 32.991 15.2767Z" fill="#08AFF6"></path> <path d="M31.4037 13.9935C30.9565 13.6899 30.4974 13.419 30.0391 13.1883C27.4464 11.8837 24.699 11.6218 22.0937 12.4309C21.6817 12.5589 21.4513 12.9967 21.5793 13.4087C21.7073 13.8208 22.1449 14.051 22.5571 13.9231C24.7684 13.2363 27.1127 13.4649 29.3366 14.5839C29.7288 14.7815 30.1402 15.0245 30.5261 15.2863C30.6606 15.3775 30.8131 15.4213 30.9642 15.4213C31.2143 15.4213 31.4602 15.3014 31.6113 15.0788C31.8536 14.7218 31.7606 14.2359 31.4037 13.9935Z" fill="#08AFF6"></path> <path d="M38.5113 24.1037C38.191 23.4319 37.6606 22.3192 37.6511 21.9512C38.5647 19.6993 38.2314 17.2074 36.7097 14.9279C34.3696 11.4222 29.5736 8.8777 25.3058 8.8777C23.0499 8.8777 20.847 9.41567 18.8652 10.4426C18.2966 7.32724 15.5644 4.95764 12.2874 4.95764C8.59942 4.95764 5.59912 7.95794 5.59912 11.6458C5.59912 13.9921 6.7949 16.1255 8.79755 17.3524C9.37489 17.7062 9.50551 18.012 9.55192 18.513V21.1804V23.0845C9.55192 23.9569 10.2614 24.6665 11.1336 24.6665H11.3992C11.8283 28.0865 13.4835 31.1916 16.1108 33.4765C16.1356 33.5537 16.2078 33.9155 15.8974 34.9949C15.6556 35.8359 15.2845 36.77 14.9572 37.5942C14.7381 38.1457 14.5489 38.622 14.4346 38.9822C14.3592 39.2196 14.4015 39.4788 14.5486 39.68C14.6958 39.8811 14.93 40 15.1792 40H26.3311C26.6975 40 27.2008 39.8359 27.5175 39.0543C27.6554 38.7141 27.7454 38.3049 27.8408 37.8716C27.9336 37.4494 28.1513 36.4606 28.3677 36.3411C28.3679 36.3411 28.3805 36.339 28.4111 36.3437C28.4511 36.3501 28.4917 36.3531 28.5323 36.3531C29.7002 36.3531 30.6545 36.4061 31.4964 36.4527C33.9659 36.5898 35.4565 36.6725 36.7641 34.7891C37.4291 33.8311 37.3537 32.434 37.2739 30.9549C37.2328 30.1925 37.1904 29.4057 37.2657 28.7515C37.402 28.6172 37.7434 28.3829 37.9575 28.2359C38.694 27.73 39.3895 27.2525 39.3895 26.5263C39.3898 25.9744 39.0559 25.2462 38.5113 24.1037ZM9.61395 16.0199C8.07841 15.0793 7.16169 13.4442 7.16169 11.6457C7.16169 8.81934 9.46114 6.52006 12.2875 6.52006C15.1138 6.52006 17.4132 8.81942 17.4132 11.6457C17.4132 13.4442 16.4966 15.0794 14.961 16.0201C14.2312 16.4674 13.7974 16.989 13.5916 17.6938L12.2872 17.6934L10.9835 17.6938C10.7775 16.9891 10.3438 16.4674 9.61395 16.0199ZM13.4605 19.2565V20.3991H11.1146V19.2565H13.4605ZM11.1337 23.104C11.125 23.104 11.1146 23.0932 11.1146 23.0844V21.9616H13.4605V23.0844C13.4605 23.0933 13.4499 23.104 13.4411 23.104H11.1337ZM37.0732 26.9477C36.4008 27.4096 35.82 27.8083 35.7344 28.4118C35.6167 29.2396 35.6661 30.1543 35.7138 31.0389C35.773 32.1363 35.84 33.3802 35.4806 33.8979C34.7033 35.0178 34.031 35.0286 31.5831 34.8926C30.7754 34.8478 29.7732 34.7922 28.585 34.7905C28.1287 34.7367 27.3566 34.8224 26.8414 35.824C26.5797 36.3326 26.439 36.9717 26.315 37.5356C26.2526 37.8189 26.1651 38.217 26.083 38.4373H16.3038C16.3381 38.351 16.3734 38.262 16.4096 38.1708C17.5351 35.337 18.2479 33.2585 17.1629 32.3206C14.8632 30.3316 13.3967 27.6383 12.9761 24.6665H13.4412C14.3135 24.6665 15.0231 23.9568 15.0231 23.0844V21.1803V18.5145C15.0694 18.0125 15.1996 17.7065 15.7774 17.3524C17.6267 16.2194 18.787 14.3134 18.9541 12.1807C20.8716 11.0412 23.0587 10.4401 25.3059 10.4401C29.0284 10.4401 33.3724 12.7424 35.4103 15.7953C36.2837 17.1038 37.1274 19.1393 36.1861 21.4057C35.8795 22.1437 36.3341 23.1673 37.1009 24.7761C37.3492 25.2969 37.7086 26.0508 37.8038 26.4029C37.6424 26.5569 37.2953 26.7952 37.0732 26.9477Z" fill="#08AFF6"></path> <path d="M16.1195 10.542C15.8888 9.68693 15.3153 9.00209 14.4608 8.56123C14.0774 8.36365 13.6062 8.51396 13.4083 8.89756C13.2106 9.28107 13.3611 9.75224 13.7446 9.94997C14.2111 10.1906 14.4945 10.5175 14.6109 10.949C14.7952 11.6321 14.5165 12.3712 14.3941 12.5632C14.1622 12.9271 14.2691 13.41 14.6329 13.642C14.7631 13.725 14.9085 13.7645 15.0522 13.7645C15.3102 13.7645 15.5627 13.6369 15.7116 13.4032C16.0449 12.8806 16.4285 11.6872 16.1195 10.542Z" fill="#08AFF6"></path> <path d="M12.2874 0C11.8559 0 11.5061 0.349921 11.5061 0.781247V3.00843C11.5061 3.43975 11.8559 3.78967 12.2874 3.78967C12.7188 3.78967 13.0686 3.43975 13.0686 3.00843V0.781247C13.0686 0.349921 12.7188 0 12.2874 0Z" fill="#08AFF6"></path> <path d="M3.61902 10.8956H1.39184C0.96036 10.8956 0.610596 11.2456 0.610596 11.6769C0.610596 12.1084 0.96036 12.4581 1.39184 12.4581H3.6191C4.0505 12.4581 4.40027 12.1084 4.40027 11.6769C4.40027 11.2456 4.05043 10.8956 3.61902 10.8956Z" fill="#08AFF6"></path> <path d="M8.62933 3.77837L7.51605 1.85041C7.30027 1.47674 6.82238 1.34885 6.44879 1.56447C6.0752 1.78025 5.94715 2.25798 6.16293 2.63165L7.27621 4.55962C7.42097 4.81032 7.68347 4.9504 7.95347 4.9504C8.08605 4.9504 8.22042 4.91665 8.34339 4.84555C8.71706 4.62977 8.84511 4.15204 8.62933 3.77837Z" fill="#08AFF6"></path> <path d="M5.17003 6.66599L3.24183 5.55272C2.86824 5.33709 2.39035 5.46514 2.17465 5.83865C1.95887 6.21232 2.08691 6.69006 2.46058 6.90584L4.38878 8.01911C4.51175 8.09021 4.64612 8.12396 4.77862 8.12396C5.04862 8.12396 5.3112 7.98388 5.45596 7.73318C5.67174 7.35966 5.5437 6.88177 5.17003 6.66599Z" fill="#08AFF6"></path> <path d="M22.4003 5.83851C22.1844 5.46484 21.7067 5.3368 21.3331 5.55258L19.4049 6.66585C19.0313 6.88163 18.9032 7.35952 19.119 7.73304C19.2637 7.98374 19.5262 8.12382 19.7962 8.12382C19.9287 8.12382 20.0631 8.09007 20.1862 8.01897L22.1144 6.9057C22.488 6.68992 22.6161 6.21218 22.4003 5.83851Z" fill="#08AFF6"></path> <path d="M5.4566 15.6207C5.24098 15.247 4.76332 15.1192 4.38957 15.3346L2.46091 16.4479C2.08724 16.6635 1.95912 17.1414 2.17482 17.5151C2.3195 17.7658 2.58216 17.9059 2.85216 17.9059C2.98466 17.9059 3.11895 17.8721 3.242 17.8012L5.17059 16.6879C5.54426 16.4723 5.67238 15.9944 5.4566 15.6207Z" fill="#08AFF6"></path> <path d="M8.18271 18.7865C7.8092 18.5709 7.33131 18.6989 7.11553 19.0724L6.16288 20.7227C5.94717 21.0963 6.07522 21.5742 6.44889 21.7898C6.57194 21.8609 6.70623 21.8947 6.83873 21.8947C7.10873 21.8947 7.37139 21.7546 7.51607 21.5039L8.46873 19.8537C8.68451 19.48 8.55646 19.0023 8.18271 18.7865Z" fill="#08AFF6"></path> <path d="M18.1261 1.56442C17.7524 1.34864 17.2747 1.47668 17.0589 1.85036L15.9457 3.77832C15.7299 4.15199 15.8579 4.6298 16.2315 4.8455C16.3546 4.91659 16.4889 4.95034 16.6214 4.95034C16.8914 4.95034 17.154 4.81027 17.2988 4.55956L18.4121 2.6316C18.6278 2.25793 18.4998 1.7802 18.1261 1.56442Z" fill="#08AFF6"></path> </g> <defs> <clipPath id="clip0"> <rect width="40" height="40" fill="white"></rect> </clipPath> </defs> </svg> 