<?xml version="1.0" encoding="UTF-8"?> <svg xmlns="http://www.w3.org/2000/svg" width="40" height="40" viewBox="0 0 40 40" fill="none"> <path d="M31.875 24.375C27.95 24.375 24.7262 27.4062 24.4069 31.25H19.375V26.25H10.625V23.125H19.375V13.125H21.875V19.375H34.375V10.2587L38.4156 6.21813C39.0344 5.59938 39.375 4.77688 39.375 3.90125C39.375 2.095 37.905 0.625 36.0988 0.625C35.2238 0.625 34.4006 0.965625 33.7819 1.58438L28.4912 6.875H21.875V11.875H19.375V0.625H5.99125L0.625 5.99125V23.125H9.375V26.25H0.625V37.5H19.375V32.5H24.4069C24.7262 36.3438 27.95 39.375 31.875 39.375C36.0106 39.375 39.375 36.0106 39.375 31.875C39.375 27.7394 36.0106 24.375 31.875 24.375ZM28.3838 8.75L33.125 4.00875L34.1162 5L29.375 9.74125L28.3838 8.75ZM27.7731 9.90687L30.0931 12.2269L27.4694 13.1012C27.1806 13.1987 26.875 12.9706 26.875 12.6744C26.875 12.6269 26.8831 12.5769 26.8975 12.5319L27.7731 9.90687ZM31.25 11.6163L30.2588 10.625L35 5.88375L35.9912 6.875L31.25 11.6163ZM36.0988 1.875C37.2163 1.875 38.125 2.78375 38.125 3.90125C38.125 4.4425 37.9144 4.95187 37.5319 5.33437L36.875 5.99125L34.0088 3.125L34.6656 2.46812C35.0481 2.08562 35.5575 1.875 36.0988 1.875ZM23.125 8.125H27.2412L26.9538 8.4125L25.7113 12.1388C25.6544 12.3125 25.625 12.4925 25.625 12.6744C25.625 13.6119 26.3881 14.375 27.3256 14.375C27.5075 14.375 27.6875 14.3456 27.8631 14.2875L31.5875 13.0463L33.125 11.5087V18.125H23.125V8.125ZM2.75875 5.625L5.625 2.75875V5.625H2.75875ZM4.375 6.875H6.875V4.375H15.625V8.125H4.375V6.875ZM1.875 6.875H3.125V9.375H16.875V3.125H6.875V1.875H18.125V21.875H1.875V6.875ZM18.125 36.25H1.875V27.5H18.125V36.25ZM31.875 38.125C28.4287 38.125 25.625 35.3213 25.625 31.875C25.625 28.4287 28.4287 25.625 31.875 25.625C35.3213 25.625 38.125 28.4287 38.125 31.875C38.125 35.3213 35.3213 38.125 31.875 38.125Z" fill="#08AFF6"></path> <path d="M30.625 34.7412L28.5669 32.6831L27.6831 33.5669L30.625 36.5087L36.6919 30.4419L35.8081 29.5581L30.625 34.7412Z" fill="#08AFF6"></path> <path d="M5 33.75C6.03375 33.75 6.875 32.9088 6.875 31.875C6.875 30.8412 6.03375 30 5 30C3.96625 30 3.125 30.8412 3.125 31.875C3.125 32.9088 3.96625 33.75 5 33.75ZM5 31.25C5.345 31.25 5.625 31.53 5.625 31.875C5.625 32.22 5.345 32.5 5 32.5C4.655 32.5 4.375 32.22 4.375 31.875C4.375 31.53 4.655 31.25 5 31.25Z" fill="#08AFF6"></path> <path d="M10 33.75C11.0338 33.75 11.875 32.9088 11.875 31.875C11.875 30.8412 11.0338 30 10 30C8.96625 30 8.125 30.8412 8.125 31.875C8.125 32.9088 8.96625 33.75 10 33.75ZM10 31.25C10.345 31.25 10.625 31.53 10.625 31.875C10.625 32.22 10.345 32.5 10 32.5C9.655 32.5 9.375 32.22 9.375 31.875C9.375 31.53 9.655 31.25 10 31.25Z" fill="#08AFF6"></path> <path d="M15 33.75C16.0338 33.75 16.875 32.9088 16.875 31.875C16.875 30.8412 16.0338 30 15 30C13.9662 30 13.125 30.8412 13.125 31.875C13.125 32.9088 13.9662 33.75 15 33.75ZM15 31.25C15.345 31.25 15.625 31.53 15.625 31.875C15.625 32.22 15.345 32.5 15 32.5C14.655 32.5 14.375 32.22 14.375 31.875C14.375 31.53 14.655 31.25 15 31.25Z" fill="#08AFF6"></path> <path d="M24.375 15.625H31.875V16.875H24.375V15.625Z" fill="#08AFF6"></path> <path d="M3.125 10.625H4.375V11.875H3.125V10.625Z" fill="#08AFF6"></path> <path d="M5.625 10.625H16.875V11.875H5.625V10.625Z" fill="#08AFF6"></path> <path d="M3.125 13.125H16.875V14.375H3.125V13.125Z" fill="#08AFF6"></path> <path d="M3.125 20.625H16.875V15.625H3.125V20.625ZM4.375 16.875H15.625V19.375H4.375V16.875Z" fill="#08AFF6"></path> </svg> 