<?xml version="1.0" encoding="UTF-8"?> <svg xmlns="http://www.w3.org/2000/svg" width="40" height="40" viewBox="0 0 40 40" fill="none"> <path d="M37.6562 25.9841V3.51562C37.6562 1.57711 36.0791 0 34.1406 0H8.28125C6.34273 0 4.76562 1.57711 4.76562 3.51562V4.76562H3.51562C1.57711 4.76562 0 6.34273 0 8.28125C0 10.2198 1.57711 11.7969 3.51562 11.7969H4.76562V16.4844H3.51562C1.57711 16.4844 0 18.0615 0 20C0 21.9385 1.57711 23.5156 3.51562 23.5156H4.76562V28.2031H3.51562C1.57711 28.2031 0 29.7802 0 31.7188C0 33.6573 1.57711 35.2344 3.51562 35.2344H4.76562V36.4062C4.76562 37.3402 5.12477 38.2302 5.77688 38.9124C6.44734 39.6138 7.3368 40 8.28125 40H31.7969C36.3201 40 40 36.2851 40 31.7188C40 29.4888 39.1052 27.4642 37.6562 25.9841ZM3.51562 9.45312C2.86945 9.45312 2.34375 8.92742 2.34375 8.28125C2.34375 7.63508 2.86945 7.10938 3.51562 7.10938H5.9375C6.58367 7.10938 7.10938 7.63508 7.10938 8.28125C7.10938 8.92742 6.58367 9.45312 5.9375 9.45312H3.51562ZM3.51562 21.1719C2.86945 21.1719 2.34375 20.6462 2.34375 20C2.34375 19.3538 2.86945 18.8281 3.51562 18.8281H5.9375C6.58367 18.8281 7.10938 19.3538 7.10938 20C7.10938 20.6462 6.58367 21.1719 5.9375 21.1719H3.51562ZM5.9375 32.8906H3.51562C2.86945 32.8906 2.34375 32.3649 2.34375 31.7188C2.34375 31.0726 2.86945 30.5469 3.51562 30.5469H5.9375C6.58367 30.5469 7.10938 31.0726 7.10938 31.7188C7.10938 32.3649 6.58367 32.8906 5.9375 32.8906ZM8.28125 37.6562C7.65703 37.6562 7.10938 37.0721 7.10938 36.4062V35.0328C8.47336 34.5491 9.45312 33.2465 9.45312 31.7188C9.45312 30.191 8.47336 28.8884 7.10938 28.4047V23.3141C8.47336 22.8303 9.45312 21.5277 9.45312 20C9.45312 18.4723 8.47336 17.1697 7.10938 16.6859V11.5953C8.47336 11.1116 9.45312 9.80898 9.45312 8.28125C9.45312 6.75352 8.47336 5.45094 7.10938 4.96719V3.51562C7.10938 2.86945 7.63508 2.34375 8.28125 2.34375H34.1406C34.7868 2.34375 35.3125 2.86945 35.3125 3.51562V24.3082C34.2464 23.8004 33.0543 23.5156 31.7969 23.5156C27.2737 23.5156 23.5938 27.1955 23.5938 31.7188C23.5938 34.0453 24.5495 36.1505 26.0848 37.6562H8.28125ZM31.7969 37.6562C28.566 37.6562 25.9375 34.9927 25.9375 31.7188C25.9375 28.4879 28.566 25.8594 31.7969 25.8594C35.0277 25.8594 37.6562 28.4879 37.6562 31.7188C37.6562 34.9927 35.0277 37.6562 31.7969 37.6562Z" fill="#08AFF6"></path> <path d="M31.7969 9.45312H24.7656C24.1184 9.45312 23.5938 9.97781 23.5938 10.625C23.5938 11.2722 24.1184 11.7969 24.7656 11.7969H31.7969C32.4441 11.7969 32.9688 11.2722 32.9688 10.625C32.9688 9.97781 32.4441 9.45312 31.7969 9.45312Z" fill="#08AFF6"></path> <path d="M31.7969 18.8281H24.7656C24.1184 18.8281 23.5938 19.3528 23.5938 20C23.5938 20.6472 24.1184 21.1719 24.7656 21.1719H31.7969C32.4441 21.1719 32.9688 20.6472 32.9688 20C32.9688 19.3528 32.4441 18.8281 31.7969 18.8281Z" fill="#08AFF6"></path> <path d="M34.1406 30.5469H32.9688V29.375C32.9688 28.7278 32.4441 28.2031 31.7969 28.2031C31.1497 28.2031 30.625 28.7278 30.625 29.375V31.7188C30.625 32.3659 31.1497 32.8906 31.7969 32.8906H34.1406C34.7878 32.8906 35.3125 32.3659 35.3125 31.7188C35.3125 31.0716 34.7878 30.5469 34.1406 30.5469Z" fill="#08AFF6"></path> <path d="M20.8287 7.45258C20.3712 6.99492 19.6291 6.99492 19.1716 7.45266L15.3126 11.3115L13.468 9.46687C13.0105 9.00922 12.2684 9.00922 11.8108 9.46687C11.3531 9.92453 11.3531 10.6665 11.8108 11.1241L14.4841 13.7974C14.7128 14.0263 15.0127 14.1406 15.3126 14.1406C15.6126 14.1406 15.9125 14.0263 16.1412 13.7973L20.8287 9.10984C21.2864 8.65219 21.2864 7.91023 20.8287 7.45258Z" fill="#08AFF6"></path> <path d="M20.8287 16.8276C20.3712 16.3699 19.6291 16.3699 19.1716 16.8277L15.3126 20.6865L13.468 18.8419C13.0105 18.3842 12.2684 18.3842 11.8108 18.8419C11.3531 19.2995 11.3531 20.0415 11.8108 20.4991L14.4841 23.1724C14.7128 23.4013 15.0127 23.5156 15.3126 23.5156C15.6126 23.5156 15.9125 23.4013 16.1412 23.1723L20.8287 18.4848C21.2864 18.0272 21.2864 17.2852 20.8287 16.8276Z" fill="#08AFF6"></path> <path d="M20.8287 26.2026C20.3712 25.7449 19.6291 25.7449 19.1716 26.2027L15.3126 30.0615L13.468 28.2169C13.0105 27.7592 12.2684 27.7592 11.8108 28.2169C11.3531 28.6745 11.3531 29.4165 11.8108 29.8741L14.4841 32.5474C14.7128 32.7762 15.0127 32.8906 15.3126 32.8906C15.6126 32.8906 15.9125 32.7762 16.1412 32.5473L20.8287 27.8598C21.2864 27.4022 21.2864 26.6602 20.8287 26.2026Z" fill="#08AFF6"></path> </svg> 